<?xml version="1.0" encoding="UTF-8" standalone="no"?>
<!DOCTYPE svg PUBLIC "-//W3C//DTD SVG 1.1//EN" "http://www.w3.org/Graphics/SVG/1.1/DTD/svg11.dtd">
<svg width="100%" height="100%" viewBox="0 0 1200 1200" version="1.1" xmlns="http://www.w3.org/2000/svg" xmlns:xlink="http://www.w3.org/1999/xlink" xml:space="preserve" xmlns:serif="http://www.serif.com/" style="fill-rule:evenodd;clip-rule:evenodd;stroke-linejoin:round;stroke-miterlimit:2;">
    <g transform="matrix(0.833333,0,0,0.833333,100,100)">
        <path d="M1090.2,600C1090.2,623.438 1088.68,646.758 1085.63,669.961C1086.1,666.797 1086.45,663.75 1086.92,660.586C1080.71,706.641 1068.52,751.641 1050.59,794.416C1051.76,791.604 1052.93,788.791 1054.11,785.979C1043.79,810.237 1031.84,833.674 1018.13,856.174C1011.33,867.307 1004.07,878.205 996.449,888.869C994.457,891.564 992.582,894.259 990.59,896.954C989.652,898.126 988.715,899.415 987.777,900.587C984.613,904.689 993.402,893.439 989.067,898.947C985.082,903.986 981.098,908.908 976.997,913.83C960.122,933.752 941.841,952.385 922.27,969.611C917.23,973.947 912.192,978.283 907.036,982.502C904.692,984.494 902.231,986.369 899.887,988.244C899.301,988.713 898.715,989.181 898.129,989.65C895.317,991.877 902.7,985.9 902.231,986.486C901.059,987.892 898.715,989.064 897.309,990.236C886.879,998.088 876.098,1005.47 865.082,1012.62C840.121,1028.56 813.754,1042.38 786.449,1053.99L794.887,1050.47C752.114,1068.4 707.114,1080.59 661.057,1086.8C664.221,1086.33 667.267,1085.98 670.432,1085.51C624.026,1091.6 576.916,1091.6 530.512,1085.51C533.676,1085.98 536.722,1086.33 539.887,1086.8C493.832,1080.59 448.832,1068.4 406.057,1050.47L414.494,1053.99C390.236,1043.67 366.799,1031.72 344.299,1018.01C333.166,1011.21 322.268,1003.95 311.604,996.329C308.909,994.337 306.213,992.462 303.518,990.47C302.346,989.532 301.057,988.595 299.885,987.657C295.784,984.493 307.034,993.282 301.526,988.946C296.487,984.962 291.565,980.977 286.643,976.876C266.721,960.001 248.088,941.72 230.862,922.149C226.526,917.11 222.19,912.071 217.971,906.915C215.979,904.571 214.104,902.11 212.229,899.767C211.76,899.181 211.291,898.595 210.823,898.009C208.596,895.196 214.573,902.579 213.987,902.111C212.58,900.939 211.409,898.595 210.237,897.189C202.385,886.759 195.003,875.978 187.854,864.962C171.916,840.001 158.088,813.634 146.487,786.329L150.002,794.766C132.072,751.993 119.885,706.993 113.674,660.936C114.143,664.1 114.495,667.147 114.963,670.311C108.87,623.788 108.87,576.678 114.963,530.151C114.495,533.315 114.143,536.362 113.674,539.526C114.612,532.846 115.549,526.284 116.721,519.604L92.112,544.213C198.522,526.049 298.592,470.033 370.202,389.293C390.944,365.973 409.694,340.66 425.749,313.824C407.351,316.168 388.952,318.512 370.554,320.973C439.812,388.121 528.994,435.113 624.144,451.403C725.394,468.747 828.634,455.035 921.564,410.973C969.728,388.121 1014.02,356.364 1052.11,319.098C1033.72,316.754 1015.32,314.41 996.919,311.949C1019.65,343.707 1038.87,377.808 1054.11,413.669C1052.93,410.857 1051.76,408.044 1050.59,405.232C1068.64,448.005 1080.94,493.005 1087.15,539.062C1086.68,535.898 1086.33,532.851 1085.86,529.687C1088.56,552.773 1090.08,576.328 1090.2,599.999C1090.2,618.397 1106.37,635.976 1125.36,635.155C1144.34,634.334 1160.51,619.686 1160.51,599.999C1160.39,508.124 1137.66,417.189 1094.54,336.089C1083.4,315.23 1070.98,295.191 1057.27,275.972C1050.59,266.714 1043.09,260.738 1031.61,259.214C1020.59,257.69 1010.16,260.971 1002.07,268.94C992.113,278.667 981.801,288.042 971.019,296.831C968.207,299.175 965.277,301.402 962.465,303.628C971.84,296.128 961.996,303.98 959.418,305.855C953.793,309.956 948.051,313.941 942.309,317.808C918.637,333.511 893.559,346.988 867.426,358.003C870.238,356.831 873.051,355.659 875.863,354.487C839.535,369.721 801.449,380.034 762.423,385.425C765.587,384.956 768.634,384.605 771.798,384.136C731.486,389.527 690.587,389.644 650.278,384.37C653.442,384.839 656.489,385.191 659.653,385.659C619.926,380.269 581.02,369.721 544.103,354.253C546.916,355.425 549.728,356.597 552.541,357.769C526.877,346.871 502.268,333.746 478.947,318.277C473.322,314.527 467.814,310.777 462.424,306.793C459.728,304.801 457.033,302.809 454.338,300.816C448.947,296.832 460.549,305.738 455.744,301.871C454.338,300.699 452.932,299.645 451.525,298.473C440.627,289.684 430.197,280.426 420.236,270.7C403.83,254.88 376.759,258.161 365.041,277.848C360.237,285.817 355.197,293.786 349.924,301.403C347.463,305.036 344.885,308.552 342.307,312.067C341.135,313.708 339.846,315.348 338.674,316.989C337.971,317.927 337.268,318.864 336.565,319.802C332.58,325.075 340.784,314.411 338.323,317.575C326.839,331.872 314.885,345.7 301.878,358.708C288.87,371.716 275.159,383.786 260.745,395.153C257.463,397.848 267.073,390.348 263.674,392.809L260.862,394.919C259.221,396.09 257.581,397.379 255.94,398.551C251.956,401.481 247.854,404.294 243.752,407.106C236.252,412.262 228.635,417.067 220.9,421.754C202.736,432.652 183.869,442.145 164.416,450.348C167.228,449.176 170.041,448.004 172.853,446.832C140.861,460.191 107.462,469.918 73.244,475.777C62.346,477.652 50.51,489.488 48.635,500.386C36.447,571.988 37.033,644.296 51.682,715.546C63.518,772.968 85.08,828.866 114.377,879.726C142.971,929.414 179.65,975.117 222.187,1013.68C265.078,1052.58 313.71,1085.51 366.567,1109.3C423.637,1135.08 483.167,1151.14 545.517,1157.58C605.869,1163.79 667.507,1159.46 726.687,1145.98C783.757,1132.97 839.187,1110.36 889.227,1080.12C938.563,1050.36 983.797,1012.74 1021.53,969.261C1059.61,925.433 1091.37,876.331 1114.22,822.781C1138.71,765.359 1153.71,705.591 1158.87,643.251C1160.04,628.837 1160.63,614.306 1160.63,599.892C1160.63,581.494 1144.46,563.915 1125.47,564.736C1106.25,565.674 1090.2,580.322 1090.2,600.009L1090.2,600Z" style="fill-rule:nonzero;"/>
        <path d="M1002,268.95C992.039,278.677 981.727,288.052 970.945,296.841C968.133,299.185 965.203,301.411 962.39,303.638C971.765,296.138 961.922,303.989 959.343,305.865C953.718,309.966 947.976,313.95 942.234,317.818C918.562,333.52 893.484,346.998 867.351,358.013C870.164,356.841 872.976,355.669 875.789,354.497C839.461,369.731 801.375,380.044 762.349,385.435C765.513,384.966 768.56,384.615 771.724,384.146C731.412,389.536 690.513,389.654 650.204,384.38C653.368,384.849 656.415,385.2 659.579,385.669C619.852,380.279 580.946,369.731 544.029,354.263C546.841,355.435 549.654,356.607 552.466,357.779C526.802,346.881 502.193,333.756 478.872,318.287C473.247,314.537 467.739,310.787 462.349,306.803C459.654,304.811 456.959,302.818 454.264,300.826C448.873,296.842 460.474,305.748 455.67,301.881C454.264,300.709 452.857,299.654 451.451,298.483C440.553,289.693 430.123,280.436 420.162,270.71C403.756,254.89 376.685,258.171 364.967,277.858C360.162,285.827 355.123,293.796 349.85,301.413C347.389,305.046 344.811,308.561 342.233,312.077C341.061,313.718 339.772,315.358 338.6,316.999C337.897,317.936 337.194,318.874 336.491,319.811C332.506,325.085 340.709,314.421 338.248,317.585C326.764,331.882 314.81,345.71 301.803,358.718C288.795,371.726 275.084,383.796 260.67,395.163C257.389,397.858 266.998,390.358 263.6,392.819L260.788,394.928C259.147,396.1 257.506,397.389 255.866,398.561C251.881,401.491 247.78,404.303 243.678,407.116C236.178,412.272 228.561,417.077 220.826,421.764C202.662,432.662 183.795,442.155 164.342,450.358C167.154,449.186 169.967,448.014 172.779,446.842C140.787,460.201 107.388,469.928 73.17,475.787L116.412,519.029C123.209,480.123 134.342,442.154 149.576,405.829L146.061,414.267C156.021,390.712 167.623,367.744 180.983,345.829C187.428,335.165 194.225,324.735 201.374,314.657C205.006,309.618 208.639,304.579 212.39,299.657C213.913,297.665 217.194,293.915 210.632,301.883C211.804,300.477 212.858,299.071 213.913,297.665C215.905,295.086 218.015,292.625 220.007,290.047C235.945,270.711 253.405,252.547 271.921,235.672C281.296,227.118 291.023,218.914 300.983,211.063C302.975,209.54 307.077,206.727 298.756,212.704C300.162,211.649 301.569,210.595 302.975,209.54C305.319,207.782 307.662,206.024 310.123,204.266C315.748,200.282 321.373,196.298 327.115,192.547C354.654,174.266 383.834,158.563 414.303,145.672C411.491,146.844 408.678,148.016 405.866,149.188C448.405,131.376 493.171,119.188 538.876,112.977C535.712,113.446 532.665,113.797 529.501,114.266C576.142,108.055 623.368,108.055 670.011,114.149C666.847,113.68 663.8,113.329 660.636,112.86C706.691,119.071 751.808,131.258 794.696,149.305L786.258,145.789C820.594,160.32 853.406,178.484 883.875,199.93C887.391,202.391 890.906,204.969 894.422,207.547C896.297,208.954 898.172,210.36 899.93,211.766C901.102,212.704 904.383,215.165 899.813,211.649C894.657,207.665 899.579,211.415 900.399,212.118C907.664,217.86 914.813,223.837 921.727,229.93C935.672,242.118 948.915,255.125 961.454,268.719C968.368,276.102 974.931,283.836 981.376,291.571C983.016,293.563 984.657,295.555 986.298,297.665C987.001,298.602 987.704,299.54 988.407,300.36C992.04,304.813 984.071,294.735 986.649,298.016C989.931,302.352 993.212,306.805 996.493,311.258C1002,318.875 1008.1,324.852 1017.47,327.43C1025.91,329.774 1037.04,328.719 1044.54,323.915C1059.31,314.422 1068.68,291.806 1057.2,275.868C1009.74,210.126 949.496,154.348 878.956,113.798C806.534,72.196 725.676,47.939 642.586,41.259C545.555,33.524 447.706,52.509 359.696,93.642C284.11,129.033 216.026,182.822 163.996,248.092C111.73,313.717 73.293,389.652 54.306,471.682C52.08,481.291 50.205,490.901 48.447,500.51C46.22,513.166 47.978,525.237 57.47,534.729C66.962,544.221 78.915,545.979 91.689,543.752C198.099,525.588 298.169,469.572 369.779,388.832C390.521,365.512 409.271,340.199 425.326,313.363C406.928,315.707 388.529,318.05 370.131,320.511C439.389,387.659 528.571,434.651 623.721,450.941C724.971,468.285 828.211,454.574 921.141,410.511C969.305,387.659 1013.6,355.902 1051.69,318.636C1064.82,305.745 1065.64,281.722 1051.69,268.948C1037.63,255.94 1016.07,255.12 1002,268.948L1002,268.95Z" style="fill-rule:nonzero;"/>
        <path d="M408.4,646.88C408.4,650.161 408.166,653.325 407.697,656.607C408.166,653.443 408.517,650.396 408.986,647.232C408.048,652.974 406.525,658.482 404.298,663.873L407.814,655.435C406.173,659.185 404.181,662.818 401.955,666.216C397.15,673.247 406.759,660.943 402.775,665.161C401.603,666.45 400.431,667.857 399.142,669.146C397.853,670.435 396.564,671.607 395.158,672.779C390.939,676.646 403.244,667.154 396.212,671.958C392.814,674.302 389.181,676.177 385.431,677.818L393.869,674.302C388.478,676.529 382.971,678.052 377.228,678.99C380.392,678.521 383.439,678.169 386.603,677.7C380.158,678.521 373.712,678.521 367.15,677.7C370.314,678.169 373.361,678.521 376.525,678.99C370.783,678.052 365.275,676.529 359.884,674.302L368.321,677.818C364.571,676.177 360.939,674.185 357.54,671.958C350.509,667.154 362.814,676.763 358.595,672.779C357.306,671.607 355.9,670.435 354.611,669.146C353.322,667.857 352.15,666.568 350.978,665.161C347.111,660.943 356.603,673.247 351.798,666.216C349.454,662.818 347.579,659.185 345.939,655.435L349.454,663.873C347.228,658.482 345.704,652.975 344.767,647.232C345.236,650.396 345.587,653.443 346.056,656.607C345.236,650.161 345.236,643.716 346.056,637.154C345.587,640.318 345.236,643.365 344.767,646.529C345.704,640.786 347.228,635.279 349.454,629.888L345.939,638.325C347.579,634.575 349.572,630.942 351.798,627.544C356.603,620.513 346.994,632.818 350.978,628.599C352.15,627.31 353.322,625.904 354.611,624.614C355.9,623.325 357.189,622.154 358.595,620.982C362.814,617.114 350.509,626.607 357.54,621.802C360.939,619.458 364.572,617.583 368.321,615.943L359.884,619.458C365.275,617.232 370.782,615.708 376.525,614.771C373.361,615.239 370.314,615.591 367.15,616.06C373.595,615.239 380.041,615.239 386.603,616.06C383.439,615.591 380.392,615.239 377.228,614.771C382.97,615.708 388.478,617.232 393.869,619.458L385.431,615.943C389.181,617.583 392.814,619.575 396.212,621.802C403.244,626.607 390.939,616.997 395.158,620.982C396.447,622.154 397.853,623.325 399.142,624.614C400.431,625.903 401.603,627.193 402.775,628.599C406.642,632.818 397.15,620.513 401.955,627.544C404.298,630.943 406.173,634.575 407.814,638.325L404.298,629.888C406.525,635.278 408.048,640.786 408.986,646.529C408.517,643.365 408.166,640.318 407.697,637.154C408.048,640.435 408.283,643.599 408.4,646.88C408.634,665.278 424.455,682.857 443.556,682.036C462.423,681.216 478.947,666.567 478.712,646.88C478.478,626.958 472.853,606.45 461.251,590.044C448.009,571.294 430.899,558.403 409.571,550.435C372.305,536.49 325.313,549.263 300.121,579.849C285.238,597.779 277.152,617.818 275.16,641.138C273.519,660.826 279.144,682.271 289.34,699.146C299.301,715.552 314.418,730.201 331.996,738.287C353.558,748.131 375.707,750.826 399.027,746.256C445.433,737.233 478.129,693.053 478.715,646.881C478.949,628.483 462.426,610.904 443.559,611.725C424.34,612.545 408.637,627.194 408.403,646.881L408.4,646.88Z" style="fill-rule:nonzero;"/>
        <path d="M854.88,646.88C854.88,650.161 854.646,653.325 854.177,656.607C854.646,653.443 854.997,650.396 855.466,647.232C854.528,652.974 853.005,658.482 850.778,663.873L854.294,655.435C852.653,659.185 850.661,662.818 848.435,666.216C843.63,673.247 853.239,660.943 849.255,665.161C848.083,666.45 846.911,667.857 845.622,669.146C844.333,670.435 843.044,671.607 841.638,672.779C837.419,676.646 849.724,667.154 842.692,671.958C839.294,674.302 835.661,676.177 831.911,677.818L840.349,674.302C834.958,676.529 829.451,678.052 823.708,678.99C826.872,678.521 829.919,678.169 833.083,677.7C826.638,678.521 820.192,678.521 813.63,677.7C816.794,678.169 819.841,678.521 823.005,678.99C817.263,678.052 811.755,676.529 806.364,674.302L814.801,677.818C811.051,676.177 807.419,674.185 804.02,671.958C796.989,667.154 809.294,676.763 805.075,672.779C803.786,671.607 802.38,670.435 801.091,669.146C799.802,667.857 798.63,666.568 797.458,665.161C793.591,660.943 803.083,673.247 798.278,666.216C795.934,662.818 794.059,659.185 792.419,655.435L795.934,663.873C793.708,658.482 792.184,652.975 791.247,647.232C791.716,650.396 792.067,653.443 792.536,656.607C791.716,650.161 791.716,643.716 792.536,637.154C792.067,640.318 791.716,643.365 791.247,646.529C792.184,640.786 793.708,635.279 795.934,629.888L792.419,638.325C794.059,634.575 796.052,630.942 798.278,627.544C803.083,620.513 793.474,632.818 797.458,628.599C798.63,627.31 799.802,625.904 801.091,624.614C802.38,623.325 803.669,622.154 805.075,620.982C809.294,617.114 796.989,626.607 804.02,621.802C807.419,619.458 811.052,617.583 814.801,615.943L806.364,619.458C811.755,617.232 817.262,615.708 823.005,614.771C819.841,615.239 816.794,615.591 813.63,616.06C820.075,615.239 826.521,615.239 833.083,616.06C829.919,615.591 826.872,615.239 823.708,614.771C829.45,615.708 834.958,617.232 840.349,619.458L831.911,615.943C835.661,617.583 839.294,619.575 842.692,621.802C849.724,626.607 837.419,616.997 841.638,620.982C842.927,622.154 844.333,623.325 845.622,624.614C846.911,625.903 848.083,627.193 849.255,628.599C853.122,632.818 843.63,620.513 848.435,627.544C850.778,630.943 852.653,634.575 854.294,638.325L850.778,629.888C853.005,635.278 854.528,640.786 855.466,646.529C854.997,643.365 854.646,640.318 854.177,637.154C854.528,640.435 854.763,643.599 854.88,646.88C855.114,665.278 870.935,682.857 890.036,682.036C908.903,681.216 925.427,666.567 925.192,646.88C924.958,626.958 919.333,606.45 907.731,590.044C894.489,571.294 877.379,558.403 856.051,550.435C818.785,536.49 771.793,549.263 746.601,579.849C731.718,597.779 723.632,617.818 721.64,641.138C719.999,660.826 725.624,682.271 735.82,699.146C745.781,715.552 760.898,730.201 778.476,738.287C800.038,748.131 822.187,750.826 845.507,746.256C891.913,737.233 924.609,693.053 925.195,646.881C925.429,628.483 908.906,610.904 890.039,611.725C870.82,612.545 855.117,627.194 854.883,646.881L854.88,646.88Z" style="fill-rule:nonzero;"/>
    </g>
</svg>
