<?xml version="1.0" encoding="UTF-8" standalone="no"?>
<!DOCTYPE svg PUBLIC "-//W3C//DTD SVG 1.1//EN" "http://www.w3.org/Graphics/SVG/1.1/DTD/svg11.dtd">
<svg width="100%" height="100%" viewBox="0 0 1200 1200" version="1.1" xmlns="http://www.w3.org/2000/svg" xmlns:xlink="http://www.w3.org/1999/xlink" xml:space="preserve" xmlns:serif="http://www.serif.com/" style="fill-rule:evenodd;clip-rule:evenodd;stroke-linejoin:round;stroke-miterlimit:2;">
    <g transform="matrix(0.833333,0,0,0.833333,100,100)">
        <path d="M1040,284.13C1073.8,213.716 1059.79,177.83 1042.09,160.13C1024.42,142.415 988.527,128.435 918.086,162.228C871.945,184.384 820.344,222.783 772.796,270.338C737.694,305.44 707.464,342.947 685.144,378.798L558.734,252.388C547.75,241.404 529.949,241.404 518.964,252.388L415.104,356.238L225.814,545.528C171.798,599.544 171.798,687.458 225.814,741.488L534.424,1050.1C539.916,1055.59 547.112,1058.34 554.311,1058.34C561.506,1058.34 568.702,1055.59 574.198,1050.1L841.588,782.728L945.448,678.868C956.432,667.884 956.432,650.083 945.448,639.098L823.448,517.088C859.319,494.76 896.819,464.529 931.898,429.443C979.46,381.888 1017.86,330.283 1040.02,284.143L1040,284.13ZM554.29,990.43L265.57,701.71C233.492,669.612 233.492,617.382 265.57,585.29L434.98,415.89L781.91,762.83L554.29,990.43ZM764.83,485.49C756.701,489.502 751.006,497.189 749.521,506.135C748.056,515.08 750.986,524.19 757.396,530.596L885.776,658.976L821.69,723.062L474.76,376.122L538.846,312.044L671.636,444.834C678.027,451.244 687.163,454.189 696.097,452.697C705.05,451.225 712.742,445.518 716.753,437.381C736.456,397.401 770.495,352.201 812.573,310.111C855.749,266.927 901.874,232.412 942.453,212.935C982.937,193.509 1000.22,197.79 1002.33,199.908C1004.43,202.014 1008.74,219.291 989.289,259.783C969.824,300.349 935.309,346.474 892.113,389.663C850.074,431.706 804.867,465.745 764.843,485.495L764.83,485.49Z" style="fill-rule:nonzero;"/>
    </g>
</svg>
