<?xml version="1.0" encoding="UTF-8" standalone="no"?>
<!DOCTYPE svg PUBLIC "-//W3C//DTD SVG 1.1//EN" "http://www.w3.org/Graphics/SVG/1.1/DTD/svg11.dtd">
<svg width="100%" height="100%" viewBox="0 0 1200 1200" version="1.1" xmlns="http://www.w3.org/2000/svg" xmlns:xlink="http://www.w3.org/1999/xlink" xml:space="preserve" xmlns:serif="http://www.serif.com/" style="fill-rule:evenodd;clip-rule:evenodd;stroke-linejoin:round;stroke-miterlimit:2;">
    <g transform="matrix(1.33333,0,0,1.33333,-200,-200)">
        <path d="M259.93,877.1L940.07,877.1L600,322.91L259.93,877.1ZM304.946,851.909L599.996,371.069L895.056,851.909L304.946,851.909Z" style="fill-rule:nonzero;"/>
        <rect x="587.41" y="423.67" width="25.191" height="50.383"/>
        <rect x="587.41" y="524.43" width="25.191" height="50.383"/>
        <rect x="587.41" y="625.19" width="25.191" height="50.383"/>
        <path d="M451.21,793.32L440.14,770.691L485.398,748.554L496.468,771.183L451.21,793.32Z" style="fill-rule:nonzero;"/>
        <path d="M360.72,837.63L349.65,815.001L394.908,792.864L405.978,815.493L360.72,837.63Z" style="fill-rule:nonzero;"/>
        <path d="M541.73,749L530.66,726.371L575.918,704.234L586.988,726.863L541.73,749Z" style="fill-rule:nonzero;"/>
        <path d="M804.13,793.28L849.372,815.448L838.29,838.069L793.048,815.901L804.13,793.28Z" style="fill-rule:nonzero;"/>
        <path d="M713.62,748.97L758.862,771.138L747.78,793.759L702.538,771.591L713.62,748.97Z" style="fill-rule:nonzero;"/>
        <path d="M623.12,704.65L668.362,726.818L657.28,749.439L612.038,727.271L623.12,704.65Z" style="fill-rule:nonzero;"/>
    </g>
</svg>
