<?xml version="1.0" encoding="UTF-8" standalone="no"?>
<!DOCTYPE svg PUBLIC "-//W3C//DTD SVG 1.1//EN" "http://www.w3.org/Graphics/SVG/1.1/DTD/svg11.dtd">
<svg width="100%" height="100%" viewBox="0 0 1200 1200" version="1.1" xmlns="http://www.w3.org/2000/svg" xmlns:xlink="http://www.w3.org/1999/xlink" xml:space="preserve" xmlns:serif="http://www.serif.com/" style="fill-rule:evenodd;clip-rule:evenodd;stroke-linejoin:round;stroke-miterlimit:2;">
    <g transform="matrix(0.833333,0,0,0.833333,100,100)">
        <path d="M967.73,1055.8L1166.84,558C1167.49,556.465 1167.89,554.879 1168.14,553.273C1168.21,552.805 1168.22,552.348 1168.27,551.883C1168.36,550.84 1168.37,549.793 1168.29,548.762C1168.26,548.211 1168.21,547.668 1168.12,547.117C1167.96,546.051 1167.69,545.004 1167.37,543.973C1167.22,543.566 1167.14,543.145 1167,542.738C1166.43,541.324 1165.72,539.992 1164.86,538.719C1164.81,538.648 1164.79,538.574 1164.74,538.504L815.998,40.304C815.877,40.148 815.963,39.991 815.842,39.823L816.01,39.788L816.01,48.007L815.565,48.007C810.729,36.007 802.436,34.519 794.542,36.296C794.542,36.343 794.495,36.152 794.456,36.152C794.421,36.198 794.339,36.007 794.339,36.007L794.054,36.007C794.018,36.007 794.018,34.195 793.968,34.195L245.948,182.735C245.647,182.821 245.397,182.508 245.096,182.602C244.053,182.938 243.034,183.094 242.061,183.598C241.412,183.922 240.838,184.235 240.237,184.617C239.623,185.012 239.026,185.348 238.471,185.805C237.944,186.238 237.463,186.68 236.983,187.16C236.409,187.735 235.866,188.336 235.35,188.985C234.991,189.453 234.643,189.895 234.331,190.387C233.78,191.227 233.323,192.125 232.889,193.063C232.756,193.34 232.565,193.567 232.456,193.856L34.936,691.976C34.693,692.585 36.002,693.222 36.002,693.847L36.002,700.851C36.002,701.737 35.978,702.651 36.146,703.526C36.182,703.577 36.002,703.577 36.002,703.605L36.002,703.89C36.002,706.183 35.451,708.413 36.721,710.429C36.721,710.405 36.361,710.476 36.361,710.476C36.361,710.523 36.002,710.523 36.002,710.523L36.002,710.546L35.463,710.593C35.822,711.155 35.896,711.671 36.279,712.191L384.869,1160.5C384.893,1160.55 384.869,1160.57 384.893,1160.62C384.916,1160.64 384.893,1160.67 384.916,1160.72C384.986,1160.82 385.084,1160.89 385.17,1160.97C385.459,1161.32 385.795,1161.59 386.108,1161.91C386.432,1162.26 386.744,1162.59 387.092,1162.89C387.451,1163.22 387.752,1163.64 388.123,1163.95C388.436,1164.19 388.807,1164.34 389.131,1164.59C389.611,1164.91 390.104,1165.22 390.608,1165.5C390.666,1165.54 390.729,1165.59 390.799,1165.62C391.842,1166.23 392.912,1166.7 394.026,1167.09C394.529,1167.26 395.01,1167.46 395.526,1167.61C395.779,1167.68 396.018,1167.83 396.268,1167.86C397.744,1168.19 399.256,1168.38 400.768,1168.38C401.955,1168.38 403.194,1168.24 404.416,1168.06L952.446,1068.42C953.13,1068.3 953.743,1068.16 954.403,1067.97C954.567,1067.91 954.747,1068.01 954.903,1068.01L954.95,1068.01C955.204,1068.01 955.419,1067.68 955.669,1067.59C956.161,1067.42 956.63,1067.18 957.11,1066.96C957.364,1066.84 957.637,1066.74 957.88,1066.6C958.083,1066.48 958.192,1066.42 958.274,1066.4C958.442,1066.3 958.552,1066.14 958.72,1066.06C960.399,1065.12 961.946,1063.97 963.278,1062.64C963.446,1062.45 963.567,1062.24 963.735,1062.07C965.044,1060.64 966.145,1059.04 966.989,1057.29C967.059,1057.17 967.18,1057.08 967.243,1056.94C967.29,1056.84 967.341,1056.74 967.376,1056.63C967.399,1056.58 967.411,1056.56 967.434,1056.51C967.528,1056.26 967.626,1056.03 967.731,1055.79L967.73,1055.8ZM931.335,1013.55L585.665,797.456L974.545,495.026L931.335,1013.55ZM561.805,764.526L430.355,282.526L956.175,457.826L561.805,764.526ZM1016.01,486.526L1123.12,557.952L980.305,914.952L1016.01,486.526ZM1069.54,473.374L1014.36,436.581L940.812,289.491L1069.54,473.374ZM958.515,415.761L453.685,247.491L790.245,79.211L958.515,415.761ZM399.215,229.311L321.395,203.366L606.765,125.522L399.215,229.311ZM263.035,226.764L367.075,261.455L124.285,573.595L263.035,226.764ZM391.825,295.815L521.965,772.905L88.215,686.167L391.825,295.815ZM521.665,814.315L395.625,1108.38L101.535,730.295L521.665,814.315ZM559.571,829.108L893.481,1037.82L434.321,1121.33L559.571,829.108Z" style="fill-rule:nonzero;"/>
    </g>
</svg>
