<?xml version="1.0" encoding="UTF-8" standalone="no"?>
<!DOCTYPE svg PUBLIC "-//W3C//DTD SVG 1.1//EN" "http://www.w3.org/Graphics/SVG/1.1/DTD/svg11.dtd">
<svg width="100%" height="100%" viewBox="0 0 1200 1200" version="1.1" xmlns="http://www.w3.org/2000/svg" xmlns:xlink="http://www.w3.org/1999/xlink" xml:space="preserve" xmlns:serif="http://www.serif.com/" style="fill-rule:evenodd;clip-rule:evenodd;stroke-linejoin:round;stroke-miterlimit:2;">
    <g transform="matrix(0.833333,0,0,0.833333,100,100)">
        <path d="M351.6,271.2L417.6,284.399L418.799,280.797L439.197,287.997L596.397,316.798L605.999,316.798L763.199,287.997L783.597,280.797L784.796,284.399L850.796,271.2L761.995,219.598L761.995,220.797L741.597,227.996L734.398,207.598L465.598,207.598L458.399,227.996L438.001,220.797L438.001,219.598L351.6,271.2ZM768,241.2L775.199,261.598L754.801,268.797L747.602,248.399L768,241.2ZM452.4,248.399L445.201,268.797L424.803,261.598L432.002,241.2L452.4,248.399Z" style="fill-rule:nonzero;"/>
        <path d="M440.4,980.4L418.798,916.798L415.196,917.997L410.396,896.395L356.396,745.195L351.595,736.797L247.195,615.597L231.593,602.398L233.991,599.999L189.593,548.397L189.593,651.597L190.792,650.398L206.394,663.597L193.195,679.199L327.595,910.799L349.197,905.998L353.998,927.6L352.799,927.6L440.4,980.4ZM390.002,900.002L394.803,921.604L373.201,926.405L368.4,904.803L390.002,900.002ZM222.002,648.002L206.4,634.803L219.599,619.201L235.201,632.4L222.002,648.002Z" style="fill-rule:nonzero;"/>
        <path d="M966,600L968.398,602.398L952.796,615.597L848.396,736.797L843.596,745.196L789.596,896.396L784.795,917.998L781.193,916.799L759.591,980.401L848.392,928.799L847.193,928.799L851.994,907.197L873.596,911.997L1008,680.397L994.797,664.795L1010.4,651.596L1011.6,652.796L1011.6,549.596L966,600ZM826.8,924L805.198,919.199L809.999,897.597L831.601,902.398L826.8,924ZM979.2,648L966.001,632.398L981.603,619.199L994.802,634.801L979.2,648Z" style="fill-rule:nonzero;"/>
        <path d="M873.6,288L610.8,336L610.8,585.6L616.8,596.401L832.8,721.201L1005.6,518.401L873.6,288ZM817.198,379.199L796.8,386.398L789.601,366L809.999,358.801L817.198,379.199ZM795.6,319.199L802.799,339.597L782.401,346.796L775.202,326.398L795.6,319.199ZM637.2,590.399L626.399,572.399L644.399,561.598L655.2,579.598L637.2,590.399ZM674.399,570.001L663.598,552.001L681.598,541.2L692.399,559.2L674.399,570.001ZM710.399,548.399L699.598,530.399L717.598,519.598L728.399,537.598L710.399,548.399ZM746.399,528.001L735.598,510.001L753.598,499.2L764.399,517.2L746.399,528.001ZM783.602,506.399L772.801,488.399L790.801,477.598L801.602,495.598L783.602,506.399ZM824.399,399.599L831.598,419.997L811.2,427.196L804.001,406.798L824.399,399.599ZM834.001,477.599L819.603,485.997L808.802,467.997L823.2,459.599L818.399,446.4L838.797,439.201L843.598,454.803L848.398,463.201L859.199,476.4L843.597,489.599L834.001,477.599ZM856.802,503.997L872.404,490.798L885.603,506.4L870.001,519.599L856.802,503.997ZM884.4,536.395L900.002,523.196L913.201,538.798L897.599,551.997L884.4,536.395ZM910.802,568.797L926.404,555.598L939.603,571.2L924.001,584.399L910.802,568.797Z" style="fill-rule:nonzero;"/>
        <path d="M823.2,740.4L607.2,615.6L594.001,615.6L378.001,740.4L466.802,991.2L734.402,991.2L823.2,740.4ZM728.399,884.4L750.001,889.201L745.2,910.803L723.598,906.002L728.399,884.4ZM590.399,637.2L612.001,637.2L612.001,658.802L590.399,658.802L590.399,637.2ZM590.399,679.2L612.001,679.2L612.001,700.802L590.399,700.802L590.399,679.2ZM590.399,721.2L612.001,721.2L612.001,742.802L590.399,742.802L590.399,721.2ZM590.399,763.2L612.001,763.2L612.001,784.802L590.399,784.802L590.399,763.2ZM590.399,805.2L612.001,805.2L612.001,826.802L590.399,826.802L590.399,805.2ZM455.999,909.6L451.198,887.998L472.8,883.197L477.601,904.799L455.999,909.6ZM497.999,901.198L493.198,879.596L514.8,874.795L519.601,896.397L497.999,901.198ZM538.8,893.999L533.999,872.397L555.601,867.596L560.402,889.198L538.8,893.999ZM621.601,886.799L605.999,883.198L596.397,883.198L580.795,886.799L575.995,865.197L589.194,862.799L589.194,845.998L610.796,845.998L610.796,862.799L623.995,865.197L621.601,886.799ZM662.398,893.999L640.796,889.198L645.597,867.596L667.199,872.397L662.398,893.999ZM703.199,901.198L681.597,896.397L686.398,874.795L708,879.596L703.199,901.198Z" style="fill-rule:nonzero;"/>
        <path d="M367.2,722.4L583.2,597.6L589.2,586.799L589.2,337.199L326.4,289.199L193.2,520.799L367.2,722.4ZM555.6,561.6L573.6,572.401L562.799,590.401L544.799,579.6L555.6,561.6ZM519.6,541.198L537.6,551.999L526.799,569.999L508.799,559.198L519.6,541.198ZM482.397,519.6L500.397,530.401L489.596,548.401L471.596,537.6L482.397,519.6ZM446.397,499.198L464.397,509.999L453.596,527.999L435.596,517.198L446.397,499.198ZM417.6,506.397L399.6,495.596L410.401,477.596L428.401,488.397L417.6,506.397ZM405.6,319.197L425.998,326.396L418.799,346.794L398.401,339.595L405.6,319.197ZM389.998,359.998L410.396,367.197L403.197,387.595L382.799,380.396L389.998,359.998ZM376.799,399.6L397.197,406.799L389.998,427.197L369.6,419.998L376.799,399.6ZM363.6,437.998L383.998,445.197L379.197,458.396L393.595,466.795L382.794,484.795L368.396,476.396L358.795,487.197L343.193,473.998L353.994,460.799L358.794,452.401L363.6,437.998ZM328.799,490.799L344.401,503.998L331.202,519.6L315.6,506.401L328.799,490.799ZM301.197,521.998L316.799,535.197L303.6,550.799L287.998,537.6L301.197,521.998ZM289.197,568.799L275.998,584.401L260.396,571.202L273.595,555.6L289.197,568.799Z" style="fill-rule:nonzero;"/>
        <path d="M901.2,250.8L753.6,165.601L447.6,165.601L300,250.8L146.4,516L146.4,686.4L300,951.6L447.6,1036.8L753.6,1036.8L901.2,951.6L1054.8,686.4L1054.8,516L901.2,250.8ZM1029.6,679.2L882,933.6L745.2,1012.8L452.4,1012.8L315.6,933.6L168,679.2L168,522L315.6,267.6L452.4,188.401L746.4,188.401L883.2,267.6L1030.8,522L1029.6,679.2Z" style="fill-rule:nonzero;"/>
    </g>
</svg>
