<?xml version="1.0" encoding="UTF-8" standalone="no"?>
<!DOCTYPE svg PUBLIC "-//W3C//DTD SVG 1.1//EN" "http://www.w3.org/Graphics/SVG/1.1/DTD/svg11.dtd">
<svg width="100%" height="100%" viewBox="0 0 1200 1200" version="1.1" xmlns="http://www.w3.org/2000/svg" xmlns:xlink="http://www.w3.org/1999/xlink" xml:space="preserve" xmlns:serif="http://www.serif.com/" style="fill-rule:evenodd;clip-rule:evenodd;stroke-linejoin:round;stroke-miterlimit:2;">
    <g transform="matrix(0.833333,0,0,0.833333,100,100)">
        <path d="M48.543,462.04L580.653,215.66C587.27,212.598 594.571,212.84 600.723,215.66L1132.81,462.04C1144.82,467.583 1150.08,481.825 1144.54,493.829C1142.06,499.216 1137.82,503.239 1132.81,505.552L1098.8,521.298L1098.8,780.828C1114.16,785.039 1127.89,793.203 1138.84,804.144C1155.22,820.527 1165.38,843.206 1165.38,868.195C1165.38,893.195 1155.22,915.859 1138.84,932.246C1122.45,948.629 1099.77,958.793 1074.79,958.793C1049.79,958.793 1027.12,948.629 1010.73,932.246C994.351,915.863 984.187,893.199 984.187,868.195C984.187,843.207 994.351,820.531 1010.73,804.144C1021.68,793.203 1035.41,785.039 1050.77,780.828L1050.77,543.538L961.933,584.671C971.132,615.441 975.738,647.261 975.738,678.995C975.738,718.339 968.652,757.843 954.519,795.285C951.769,802.457 945.66,808.211 937.64,810.109C877.671,824.566 819.29,846.394 763.63,875.039C708.54,903.398 656.33,938.293 607.99,979.179C603.611,983.73 597.474,986.55 590.67,986.55C583.865,986.55 577.717,983.73 573.35,979.167C525.018,938.276 472.79,903.382 417.7,875.037C362.395,846.576 304.43,824.849 244.86,810.392C236.895,808.904 229.891,803.42 226.833,795.283C212.688,757.849 205.614,718.338 205.614,678.993C205.614,647.274 210.208,615.438 219.403,584.669L48.523,505.552C36.519,500.009 31.261,485.767 36.8,473.763C39.28,468.377 43.519,464.353 48.523,462.04L48.543,462.04ZM614.693,745.45L614.693,912.61C655.131,881.938 697.623,855.153 741.703,832.462C796.625,804.2 854.293,782.146 913.813,766.782C923.083,738.45 927.731,708.755 927.731,678.993C927.731,654.048 924.458,629.145 917.938,605.052L614.698,745.452L614.693,745.45ZM566.673,912.63L566.673,745.45L263.433,605.05C256.914,629.144 253.64,654.046 253.64,678.991C253.64,708.757 258.288,738.448 267.558,766.78C327.058,782.143 384.728,804.198 439.648,832.46C483.726,855.136 526.234,881.952 566.668,912.624L566.673,912.63ZM975.813,525.44L589.643,507.71C576.448,507.144 566.202,495.96 566.768,482.765C567.334,469.57 578.518,459.324 591.713,459.89L1060.48,481.363L590.683,263.833L115.593,483.803C273.963,557.123 432.213,630.393 590.683,703.773C719.093,644.316 847.533,584.843 975.813,525.443L975.813,525.44ZM1104.9,838.08C1097.22,830.396 1086.55,825.623 1074.79,825.623C1063.02,825.623 1052.35,830.4 1044.67,838.08C1036.99,845.764 1032.21,856.435 1032.21,868.197C1032.21,879.974 1036.99,890.635 1044.67,898.314C1052.35,905.998 1063.01,910.771 1074.79,910.771C1086.55,910.771 1097.22,905.994 1104.9,898.314C1112.59,890.63 1117.36,879.974 1117.36,868.197C1117.36,856.431 1112.58,845.759 1104.9,838.08Z" style="fill-rule:nonzero;"/>
    </g>
</svg>
