<?xml version="1.0" encoding="UTF-8" standalone="no"?>
<!DOCTYPE svg PUBLIC "-//W3C//DTD SVG 1.1//EN" "http://www.w3.org/Graphics/SVG/1.1/DTD/svg11.dtd">
<svg width="100%" height="100%" viewBox="0 0 1200 1200" version="1.1" xmlns="http://www.w3.org/2000/svg" xmlns:xlink="http://www.w3.org/1999/xlink" xml:space="preserve" xmlns:serif="http://www.serif.com/" style="fill-rule:evenodd;clip-rule:evenodd;stroke-linejoin:round;stroke-miterlimit:2;">
    <g>
        <path d="M954.84,600C954.84,651.395 913.18,693.055 861.785,693.055C810.39,693.055 768.73,651.395 768.73,600C768.73,548.605 810.39,506.945 861.785,506.945C913.18,506.945 954.84,548.605 954.84,600"/>
        <path d="M693.44,600C693.44,651.395 651.78,693.055 600.385,693.055C548.99,693.055 507.33,651.395 507.33,600C507.33,548.605 548.99,506.945 600.385,506.945C651.78,506.945 693.44,548.605 693.44,600"/>
        <path d="M431.27,600C431.27,651.395 389.61,693.055 338.215,693.055C286.82,693.055 245.16,651.395 245.16,600C245.16,548.605 286.82,506.945 338.215,506.945C389.61,506.945 431.27,548.605 431.27,600"/>
    </g>
</svg>
