<?xml version="1.0" encoding="UTF-8"?>
<svg width="1200pt" height="1200pt" version="1.1" viewBox="0 0 1200 1200" xmlns="http://www.w3.org/2000/svg">
 <path d="m599.06 287.53c16.406-15.75 31.453-32.438 48.656-46.359 71.484-56.203 167.06-71.016 252.24-39.141s147.52 105.84 164.53 195.14c8.0156 48.703 4.1719 98.578-11.109 145.5-1.9688 6.5625-5.625 6.9844-11.156 6.9844-61.359-0.14062-122.72 0.046875-184.13-0.23438h0.046875c-7.7812-0.28125-15.328 2.8594-20.578 8.5781-32.672 33.047-65.625 65.719-98.391 98.672-2.5781 3.0938-4.8281 6.3281-6.8438 9.7969-4.7812-4.4531-7.5-6.8438-10.078-9.375-84.656-84.609-169.31-169.22-253.97-253.78-13.688-13.641-17.812-13.641-31.594 0.14063-46.5 46.5-92.953 93.094-139.74 139.26-4.2656 3.9375-9.7969 6.2812-15.609 6.5625-41.016 0.51562-82.031 0.28125-123.1 0.28125-4.6875 0-8.8125 0.75-10.875-5.8125-27.656-89.25-21.938-174.14 33.984-251.72l0.046876-0.046875c47.344-65.016 122.16-104.48 202.6-106.83s157.4 32.625 208.55 94.781c2.2969 2.8125 4.7344 5.5312 6.5156 7.5938z"/>
 <path d="m179.29 618.89h13.781c38.297 0 76.641-0.1875 114.94 0.14062 7.4531 0.28125 14.672-2.7656 19.688-8.2969 38.672-39 77.625-77.719 116.39-116.62 3.1875-3.7969 6.0938-7.7812 8.7656-11.906 2.5781 4.3594 5.5312 8.4844 8.7656 12.422 84.562 84.703 169.18 169.36 253.87 253.92 12.609 12.609 17.391 12.562 30.234-0.23438 40.781-40.734 81.609-81.375 122.16-122.39h-0.046875c4.5938-4.9219 11.109-7.5469 17.812-7.1719 44.391 0.28125 88.781 0.14062 134.63 0.14062-1.6406 3.5156-2.6719 6.1875-4.0312 8.6719h-0.046875c-35.297 62.672-78.938 120.32-129.61 171.42-76.172 79.312-162.14 148.55-255.89 206.06-18 13.172-42.422 13.312-60.516 0.28125-80.438-49.266-155.16-107.25-222.94-172.82-59.625-55.547-111.38-118.92-153.84-188.48-4.6406-7.7344-8.8594-15.703-14.109-25.125z"/>
</svg>
