<?xml version="1.0" encoding="UTF-8" standalone="no"?>
<!DOCTYPE svg PUBLIC "-//W3C//DTD SVG 1.1//EN" "http://www.w3.org/Graphics/SVG/1.1/DTD/svg11.dtd">
<svg width="100%" height="100%" viewBox="0 0 1200 1200" version="1.1" xmlns="http://www.w3.org/2000/svg" xmlns:xlink="http://www.w3.org/1999/xlink" xml:space="preserve" xmlns:serif="http://www.serif.com/" style="fill-rule:evenodd;clip-rule:evenodd;stroke-linejoin:round;stroke-miterlimit:2;">
    <g>
        <path d="M535.92,604.54C535.92,735.96 429.38,842.5 297.96,842.5C166.54,842.5 60,735.96 60,604.54C60,473.12 166.54,366.58 297.96,366.58C429.38,366.58 535.92,473.12 535.92,604.54" style="fill-rule:nonzero;"/>
        <path d="M902.04,366.57C770.83,366.57 664.08,473.32 664.08,604.53C664.08,735.74 770.82,842.49 902.04,842.49C1033.25,842.49 1140,735.74 1140,604.53C1140,473.32 1033.25,366.57 902.04,366.57ZM902.04,796.75C796.07,796.75 709.83,710.531 709.83,604.55C709.83,498.569 796.072,412.35 902.04,412.35C1008.01,412.35 1094.25,498.58 1094.25,604.55C1094.25,710.52 1008.01,796.75 902.04,796.75Z" style="fill-rule:nonzero;"/>
        <path d="M318.14,301.87C321.824,301.87 325.496,300.393 328.218,297.468C329.058,296.558 414.402,206.402 565.468,206.402C566.921,206.402 568.409,206.413 569.882,206.425C691.522,207.827 766.322,255.445 792.652,275.616L725.691,276.862C718.105,276.995 712.082,283.245 712.238,290.842C712.383,298.319 718.492,304.319 725.965,304.319L726.219,304.319L841.859,302.159L830.746,194.139C829.941,186.592 823.043,181.073 815.676,181.885C808.129,182.655 802.645,189.408 803.422,196.944L809.254,253.62C779.481,230.546 700.164,180.479 570.194,178.968C404.124,177.398 311.924,274.667 308.064,278.784C302.916,284.362 303.24,293.042 308.794,298.186C311.439,300.674 314.775,301.874 318.134,301.874L318.14,301.87Z" style="fill-rule:nonzero;"/>
        <path d="M873.48,901.61C872.437,902.548 767.25,995.739 612.59,993.555C490.99,992.153 416.21,944.571 389.85,924.387L456.725,923.125C464.323,922.981 470.346,916.731 470.202,909.156C470.046,901.559 463.831,895.656 456.21,895.679L340.57,897.84L351.707,1005.86C352.437,1012.93 358.402,1018.18 365.352,1018.18C365.821,1018.18 366.289,1018.16 366.782,1018.1C374.329,1017.32 379.813,1010.57 379.036,1003.04L373.192,946.328C402.954,969.39 482.302,1019.49 612.282,1021C613.903,1021.03 615.485,1021.04 617.083,1021.04C779.503,1021.04 887.273,926.144 891.823,922.051C897.487,916.977 897.956,908.297 892.901,902.684C887.795,897.02 879.155,896.528 873.491,901.606L873.48,901.61Z" style="fill-rule:nonzero;"/>
    </g>
</svg>
