<?xml version="1.0" encoding="UTF-8" standalone="no"?>
<!DOCTYPE svg PUBLIC "-//W3C//DTD SVG 1.1//EN" "http://www.w3.org/Graphics/SVG/1.1/DTD/svg11.dtd">
<svg width="100%" height="100%" viewBox="0 0 1200 1200" version="1.1" xmlns="http://www.w3.org/2000/svg" xmlns:xlink="http://www.w3.org/1999/xlink" xml:space="preserve" xmlns:serif="http://www.serif.com/" style="fill-rule:evenodd;clip-rule:evenodd;stroke-linejoin:round;stroke-miterlimit:2;">
    <g transform="matrix(0.833333,0,0,0.833333,100,100)">
        <path d="M373.54,1080L826.47,1080C862.072,1080 891.04,1051.03 891.04,1015.43L891.04,184.57C891.04,148.968 862.071,120 826.47,120L373.54,120C337.938,120 308.97,148.969 308.97,184.57L308.97,1015.43C308.97,1051.03 337.939,1080 373.54,1080ZM332.97,184.57C332.97,162.199 351.169,144 373.54,144L826.47,144C848.841,144 867.04,162.199 867.04,184.57L867.04,1015.43C867.04,1037.8 848.841,1056 826.47,1056L373.54,1056C351.169,1056 332.97,1037.8 332.97,1015.43L332.97,184.57Z" style="fill-rule:nonzero;"/>
        <path d="M456.4,427.29L564,427.29C590.465,427.29 612,405.755 612,379.29L612,257.86C612,231.395 590.465,209.86 564,209.86L456.4,209.86C429.935,209.86 408.4,231.395 408.4,257.86L408.4,379.28C408.4,405.749 429.931,427.284 456.4,427.284L456.4,427.29ZM432.4,257.86C432.4,244.626 443.166,233.86 456.4,233.86L564,233.86C577.234,233.86 588,244.626 588,257.86L588,379.28C588,392.514 577.234,403.28 564,403.28L456.4,403.28C443.166,403.28 432.4,392.514 432.4,379.28L432.4,257.86Z" style="fill-rule:nonzero;"/>
    </g>
</svg>
