<?xml version="1.0" encoding="UTF-8" standalone="no"?>
<!DOCTYPE svg PUBLIC "-//W3C//DTD SVG 1.1//EN" "http://www.w3.org/Graphics/SVG/1.1/DTD/svg11.dtd">
<svg width="100%" height="100%" viewBox="0 0 1200 1200" version="1.1" xmlns="http://www.w3.org/2000/svg" xmlns:xlink="http://www.w3.org/1999/xlink" xml:space="preserve" xmlns:serif="http://www.serif.com/" style="fill-rule:evenodd;clip-rule:evenodd;stroke-linejoin:round;stroke-miterlimit:2;">
    <g transform="matrix(0.694444,0,0,0.694444,183.333,183.333)">
        <path d="M120,560L520,560C530.609,560 540.781,555.785 548.285,548.285C555.785,540.781 560,530.609 560,520L560,120C560,109.391 555.785,99.219 548.285,91.715C540.781,84.215 530.609,80 520,80L120,80C109.391,80 99.219,84.215 91.715,91.715C84.215,99.219 80,109.391 80,120L80,520C80,530.609 84.215,540.781 91.715,548.285C99.219,555.785 109.391,560 120,560ZM160,160L480,160L480,480L160,480L160,160Z" style="fill-rule:nonzero;"/>
        <path d="M680,560L1080,560C1090.61,560 1100.78,555.785 1108.29,548.285C1115.79,540.781 1120,530.609 1120,520L1120,120C1120,109.391 1115.79,99.219 1108.29,91.715C1100.78,84.215 1090.61,80 1080,80L680,80C669.391,80 659.219,84.215 651.715,91.715C644.215,99.219 640,109.391 640,120L640,520C640,530.609 644.215,540.781 651.715,548.285C659.219,555.785 669.391,560 680,560ZM720,160L1040,160L1040,480L720,480L720,160Z" style="fill-rule:nonzero;"/>
        <path d="M120,1120L520,1120C530.609,1120 540.781,1115.79 548.285,1108.29C555.785,1100.78 560,1090.61 560,1080L560,680C560,669.391 555.785,659.219 548.285,651.715C540.781,644.215 530.609,640 520,640L120,640C109.391,640 99.219,644.215 91.715,651.715C84.215,659.219 80,669.391 80,680L80,1080C80,1090.61 84.215,1100.78 91.715,1108.29C99.219,1115.79 109.391,1120 120,1120ZM160,720L480,720L480,1040L160,1040L160,720Z" style="fill-rule:nonzero;"/>
        <path d="M680,1120L1080,1120C1090.61,1120 1100.78,1115.79 1108.29,1108.29C1115.79,1100.78 1120,1090.61 1120,1080L1120,680C1120,669.391 1115.79,659.219 1108.29,651.715C1100.78,644.215 1090.61,640 1080,640L680,640C669.391,640 659.219,644.215 651.715,651.715C644.215,659.219 640,669.391 640,680L640,1080C640,1090.61 644.215,1100.78 651.715,1108.29C659.219,1115.79 669.391,1120 680,1120ZM720,720L1040,720L1040,1040L720,1040L720,720Z" style="fill-rule:nonzero;"/>
    </g>
</svg>
