<?xml version="1.0" encoding="UTF-8" standalone="no"?>
<!DOCTYPE svg PUBLIC "-//W3C//DTD SVG 1.1//EN" "http://www.w3.org/Graphics/SVG/1.1/DTD/svg11.dtd">
<svg width="100%" height="100%" viewBox="0 0 1200 1200" version="1.1" xmlns="http://www.w3.org/2000/svg" xmlns:xlink="http://www.w3.org/1999/xlink" xml:space="preserve" xmlns:serif="http://www.serif.com/" style="fill-rule:evenodd;clip-rule:evenodd;stroke-linejoin:round;stroke-miterlimit:2;">
    <g transform="matrix(0.75,0,0,0.75,150,150)">
        <path d="M897.27,302.69C822.258,155.01 668.63,60 502.6,60C258.55,60 60,258.55 60,502.6C60,668.63 155.004,822.26 302.69,897.27C375.842,1041.14 525.26,1140 697.4,1140C941.45,1140 1140,941.45 1140,697.4C1140,525.24 1041.13,375.84 897.27,302.69ZM696.66,314.823L885.18,503.343C885.133,529.695 882.407,555.421 877.258,580.277L619.728,322.737C644.58,317.592 670.322,314.866 696.662,314.819L696.66,314.823ZM345.3,847.023C337.956,829.793 331.886,811.996 327.179,793.863L406.257,872.941C386.335,867.769 366.823,861 347.804,852.566C346.98,850.718 346.093,848.894 345.3,847.023L345.3,847.023ZM503.34,885.183L314.82,696.663C314.867,670.311 317.593,644.585 322.742,619.718L580.272,877.248C555.42,882.408 529.69,885.135 503.338,885.182L503.34,885.183ZM645.343,857.479L342.53,554.666C350.475,534.986 359.94,516.088 370.909,498.182L701.839,829.112C683.921,840.065 665.023,849.534 645.343,857.479ZM750.9,793.335L406.67,449.105C419.69,433.878 433.873,419.695 449.104,406.671L793.334,750.901C780.314,766.131 766.131,780.315 750.9,793.335ZM829.107,701.823L498.177,370.893C516.079,359.924 534.993,350.467 554.661,342.526L857.471,645.336C849.526,665.016 840.069,683.914 829.104,701.82L829.107,701.823ZM793.861,327.183C813.986,332.414 833.58,339.351 852.564,347.812C861.001,366.832 867.767,386.343 872.939,406.265L793.861,327.183ZM697.404,1080C574.814,1080 465.574,1021.98 395.514,932.033C430.268,940.685 466.026,945.209 502.604,945.209C746.654,945.209 945.214,746.659 945.214,502.609C945.214,466.047 940.691,430.273 932.038,395.519C1021.99,465.578 1080.01,574.819 1080.01,697.409C1080.01,908.369 908.368,1080.01 697.408,1080.01L697.404,1080Z" style="fill-rule:nonzero;"/>
    </g>
</svg>
