<?xml version="1.0" encoding="UTF-8" standalone="no"?>
<!DOCTYPE svg PUBLIC "-//W3C//DTD SVG 1.1//EN" "http://www.w3.org/Graphics/SVG/1.1/DTD/svg11.dtd">
<svg width="100%" height="100%" viewBox="0 0 1200 1200" version="1.1" xmlns="http://www.w3.org/2000/svg" xmlns:xlink="http://www.w3.org/1999/xlink" xml:space="preserve" xmlns:serif="http://www.serif.com/" style="fill-rule:evenodd;clip-rule:evenodd;stroke-linejoin:round;stroke-miterlimit:2;">
    <g transform="matrix(0.833333,0,0,0.833333,100,100)">
        <path d="M403.61,133.33L1174.78,133.33L1174.78,915.31C1048.66,965.759 922.53,1016.21 796.4,1066.66L28.83,1066.66L28.83,288.28L403.61,133.33ZM771.18,1023.42L771.18,922.52L410.82,922.52L162.17,1023.42L771.18,1023.42ZM162.17,281.08L385.59,281.08L385.59,187.385L162.17,281.08ZM428.84,281.08L789.2,281.08L1037.85,176.58L428.84,176.58L428.84,281.08ZM771.18,324.322L428.84,324.322L428.84,875.672L771.18,875.672L771.18,324.322ZM385.59,324.322L72.08,324.322L72.08,1012.61L385.59,882.882L385.59,324.322ZM1037.84,922.522L814.42,922.522L814.42,1012.61L1037.84,922.522ZM814.42,875.674L1127.93,875.674L1127.93,187.384L814.42,317.114L814.42,875.674Z"/>
    </g>
</svg>
