<?xml version="1.0" encoding="UTF-8" standalone="no"?>
<!DOCTYPE svg PUBLIC "-//W3C//DTD SVG 1.1//EN" "http://www.w3.org/Graphics/SVG/1.1/DTD/svg11.dtd">
<svg width="100%" height="100%" viewBox="0 0 1200 1200" version="1.1" xmlns="http://www.w3.org/2000/svg" xmlns:xlink="http://www.w3.org/1999/xlink" xml:space="preserve" xmlns:serif="http://www.serif.com/" style="fill-rule:evenodd;clip-rule:evenodd;stroke-linejoin:round;stroke-miterlimit:2;">
    <g transform="matrix(0.75,0,0,0.75,150,150)">
        <path d="M895.31,392.08C872.767,385.17 849.4,379.416 825.896,374.299C820.455,348.924 814.654,325.44 808.041,305.123C762.74,158.963 686.971,75.163 600.181,75.163C513.353,75.163 437.581,158.972 392.431,304.683C383.497,332.277 375.88,363.093 369.177,398.578C363.501,427.562 359.142,457.941 355.919,491.301C352.552,524.906 350.868,561.469 350.868,600.001C350.868,638.533 352.552,675.091 355.923,708.561C357.161,721.436 358.724,733.495 360.31,745.53C347.794,742.421 336.271,738.913 324.908,735.55C218.778,702.116 150.328,649.015 150.328,599.999C150.328,575.253 167.109,553.202 186.25,535.995L181.089,547.897C167.569,579.081 198.511,611.038 230.116,598.535C239.523,594.812 247.065,587.512 251.089,578.226L301.089,462.776C309.461,443.444 300.578,420.987 281.249,412.616L165.799,362.616C156.514,358.596 146.018,358.424 136.608,362.147L136.604,362.147C104.999,374.647 104.292,419.124 135.483,432.624L176.159,450.226C93.53,503.292 75.319,560.666 75.319,599.996C75.319,686.734 158.999,762.506 304.859,807.876C326.183,814.45 349.078,820.396 374.441,825.751C379.859,850.954 385.648,874.388 392.277,894.868C437.578,1041.03 513.347,1124.83 600.177,1124.83C674.919,1124.83 741.567,1062.92 787.787,950.508C795.662,931.356 786.541,909.438 767.353,901.563C748.345,893.688 726.337,902.809 718.427,921.981C685.505,1002.04 641.302,1049.82 600.177,1049.82C550.775,1049.82 497.267,980.278 463.767,872.231C460.513,862.169 457.553,851.141 454.635,839.868C466.53,841.43 478.44,842.993 491.123,844.231C525.107,847.583 561.803,849.286 600.183,849.286C655.921,849.286 710.343,845.497 761.863,838.024C786.39,833.77 811.172,829.821 835.289,823.981C1016.7,782.696 1124.99,698.961 1124.99,599.991C1124.99,513.253 1041.31,437.481 895.299,392.071L895.31,392.08ZM818.478,750.9C796.076,756.373 773.759,759.779 751.095,763.81C670.052,775.583 575.755,777.267 498.485,769.615C477.008,767.505 457.325,764.744 438.512,761.677C435.399,742.548 432.633,722.814 430.555,701.224C427.442,670.115 425.867,636.056 425.867,600.004C425.867,563.952 427.442,529.895 430.555,498.654C433.559,467.619 437.551,439.619 442.825,412.759C448.977,380.13 455.825,352.333 463.919,327.321C497.282,219.711 550.782,150.161 600.189,150.161C649.596,150.161 703.059,219.704 736.569,327.811C739.823,337.803 742.796,348.831 745.717,360.135C733.737,358.565 721.737,356.999 708.885,355.756C660.397,350.885 603.595,349.292 549.325,351.858C528.634,352.827 512.669,370.37 513.618,391.061C514.607,411.772 531.341,428.01 552.841,426.784C603.489,424.405 656.331,425.905 701.851,430.389C723.328,432.499 743.011,435.261 761.828,438.327C764.926,457.296 767.68,476.956 769.781,498.597C771.473,516.394 772.504,535.159 773.242,554.48L753.176,532.429C730.301,507.292 688.453,522.367 686.864,556.316C686.392,566.421 689.95,576.3 696.763,583.781L781.466,676.804C795.65,692.378 819.775,693.507 835.349,679.327L928.372,594.624C935.852,587.812 940.321,578.308 940.794,568.206C942.384,534.253 902.126,515.335 877.001,538.226L848.247,564.425C847.587,539.597 846.661,514.859 844.419,491.437C843.176,478.55 841.626,466.578 840.055,454.617C851.239,457.504 862.403,460.438 873.203,463.75C980.603,497.148 1050,550.637 1050,600C1050,658.738 957.023,719.37 818.483,750.9L818.478,750.9Z" style="fill-rule:nonzero;"/>
    </g>
</svg>
