<?xml version="1.0" encoding="UTF-8" standalone="no"?>
<!DOCTYPE svg PUBLIC "-//W3C//DTD SVG 1.1//EN" "http://www.w3.org/Graphics/SVG/1.1/DTD/svg11.dtd">
<svg width="100%" height="100%" viewBox="0 0 1200 1200" version="1.1" xmlns="http://www.w3.org/2000/svg" xmlns:xlink="http://www.w3.org/1999/xlink" xml:space="preserve" xmlns:serif="http://www.serif.com/" style="fill-rule:evenodd;clip-rule:evenodd;stroke-linejoin:round;stroke-miterlimit:2;">
    <g transform="matrix(0.833333,0,0,0.833333,100,100)">
        <path d="M968.64,423C968.636,412.426 965.835,402.035 960.527,392.891C955.218,383.747 947.582,376.164 938.398,370.922L653.638,208.202C620.435,189.233 579.677,189.233 546.478,208.202L261.598,370.922C249.305,377.953 239.895,389.106 235.036,402.406C230.176,415.703 230.176,430.297 235.036,443.594C239.895,456.895 249.306,468.047 261.598,475.078L325.317,511.078L261.598,547.078C249.305,554.113 239.895,565.266 235.036,578.562C230.176,591.863 230.176,606.457 235.036,619.753C239.895,633.054 249.306,644.206 261.598,651.237L325.317,687.237L261.598,723.237C249.305,730.272 239.895,741.425 235.036,754.721C230.176,768.022 230.176,782.616 235.036,795.912C239.895,809.213 249.306,820.365 261.598,827.396L546.478,991.796C579.677,1010.76 620.435,1010.76 653.638,991.796L938.398,829.076C950.691,822.045 960.101,810.892 964.96,797.592C969.819,784.295 969.819,769.701 964.96,756.404C960.1,743.103 950.69,731.951 938.398,724.92L874.679,688.92L938.398,652.92C950.691,645.885 960.101,634.732 964.96,621.436C969.819,608.135 969.819,593.541 964.96,580.245C960.1,566.944 950.69,555.792 938.398,548.761L874.679,512.761L938.398,476.761C947.835,471.374 955.632,463.531 960.957,454.062C966.282,444.593 968.937,433.859 968.64,423L968.64,423ZM805.32,732L884.519,777.238L617.879,929.278C606.742,935.708 593.02,935.708 581.879,929.278L315.599,776.998L394.677,731.998C395.638,731.998 396.478,730.678 397.439,729.959L546.479,814.799C579.678,833.768 620.436,833.768 653.639,814.799L802.559,729.721C803.996,730.44 803.996,731.158 805.316,731.998L805.32,732ZM805.32,555L884.398,600L617.878,752.28C606.741,758.71 593.019,758.71 581.878,752.28L315.598,600L394.797,554.762C395.758,554.762 396.598,553.442 397.559,552.723L546.479,637.801L546.475,637.801C579.674,656.77 620.432,656.77 653.635,637.801L802.555,552.723C803.992,553.442 803.992,554.16 805.313,554.762L805.32,555ZM617.88,575.281C606.743,581.711 593.021,581.711 581.88,575.281L315.6,423.001L582.12,270.721C593.257,264.291 606.979,264.291 618.12,270.721L884.4,423.001L617.88,575.281Z" style="fill-rule:nonzero;"/>
    </g>
</svg>
