<?xml version="1.0" encoding="UTF-8" standalone="no"?>
<!DOCTYPE svg PUBLIC "-//W3C//DTD SVG 1.1//EN" "http://www.w3.org/Graphics/SVG/1.1/DTD/svg11.dtd">
<svg width="100%" height="100%" viewBox="0 0 1200 1200" version="1.1" xmlns="http://www.w3.org/2000/svg" xmlns:xlink="http://www.w3.org/1999/xlink" xml:space="preserve" xmlns:serif="http://www.serif.com/" style="fill-rule:evenodd;clip-rule:evenodd;stroke-linejoin:round;stroke-miterlimit:2;">
    <g transform="matrix(0.833333,0,0,0.833333,100,100)">
        <path d="M1127.1,831.68C1127.23,830.66 1127.96,829.762 1127.96,828.703L1127.96,157.023C1127.96,154.707 1127.05,152.559 1126.39,150.422C1126.25,149.93 1126.3,149.437 1126.13,148.945C1126.08,148.812 1125.86,148.766 1125.82,148.633C1124.48,145.25 1122.28,142.441 1119.6,140.078C1118.88,139.406 1118.11,139.059 1117.31,138.519C1115.08,137.008 1112.63,135.941 1109.94,135.266C1109.29,135.086 1108.8,134.547 1108.14,134.461L380.519,22.491C372.585,21.194 364.644,24.315 359.496,30.424C359.496,30.424 76.106,372.674 75.406,375.404C75.121,376.518 71.484,1044.17 71.484,1044.17C71.484,1055.45 74.207,1065.03 85.32,1066.73C85.32,1066.73 842,1178.12 842.35,1177.68L1122.18,842.593C1122.89,841.754 1123.13,841.082 1123.69,840.144C1124.51,838.812 1125.5,837.718 1126.04,836.207C1126.63,834.687 1126.86,833.273 1127.1,831.676L1127.1,831.68ZM386.3,69.56L1061.25,173.42L815.51,468.35L140.52,364.54L386.3,69.56ZM119.96,407.54L803.96,512.43L803.96,1137.93L119.96,1033.04L119.96,407.54ZM851.96,501.153L1079.96,220.103L1079.96,820.403L851.96,1101.5L851.96,501.153Z" style="fill-rule:nonzero;"/>
    </g>
</svg>
