<?xml version="1.0" encoding="UTF-8" standalone="no"?>
<!DOCTYPE svg PUBLIC "-//W3C//DTD SVG 1.1//EN" "http://www.w3.org/Graphics/SVG/1.1/DTD/svg11.dtd">
<svg width="100%" height="100%" viewBox="0 0 1200 1200" version="1.1" xmlns="http://www.w3.org/2000/svg" xmlns:xlink="http://www.w3.org/1999/xlink" xml:space="preserve" xmlns:serif="http://www.serif.com/" style="fill-rule:evenodd;clip-rule:evenodd;stroke-linejoin:round;stroke-miterlimit:2;">
    <g transform="matrix(0.833333,0,0,0.833333,100,100)">
        <path d="M1112.6,51.43L886.31,51.43C867.455,51.43 852.025,66.86 852.025,85.715C852.025,104.57 867.455,120 886.31,120L1025.17,120L726.88,418.29C690.88,392.575 646.31,377.145 598.31,377.145C474.88,377.145 375.45,476.575 375.45,600.005C375.45,648.005 390.88,692.575 416.595,728.575L118.305,1025.15L118.305,886.295C118.305,867.44 102.875,852.01 84.02,852.01C65.165,852.01 49.735,867.44 49.735,886.295L49.735,1114.3C49.735,1133.15 65.165,1148.58 84.02,1148.58L310.31,1148.58C329.165,1148.58 344.595,1133.15 344.595,1114.3C344.595,1095.44 329.165,1080.01 310.31,1080.01L161.17,1080.01L462.88,778.3C500.595,807.445 546.88,822.87 598.31,822.87C721.74,822.87 821.17,723.44 821.17,600.01C821.17,550.295 804.025,502.295 774.885,464.58L1078.32,162.87L1078.32,312.01C1078.32,330.865 1093.75,346.295 1112.6,346.295C1131.45,346.295 1146.88,330.865 1146.88,312.01L1146.88,85.72C1146.88,66.861 1131.46,51.435 1112.6,51.435L1112.6,51.43ZM598.31,754.29C567.455,754.29 536.595,744.005 512.595,728.575C493.74,716.575 476.595,699.43 464.595,678.86C450.88,656.575 442.31,629.145 442.31,600.005C442.31,514.29 510.88,445.715 596.6,445.715C625.745,445.715 651.455,454.285 675.455,468C696.025,480 713.17,495.43 725.17,516C742.315,540 750.885,570.855 750.885,601.715C752.6,685.715 682.315,754.285 598.315,754.285L598.31,754.29Z" style="fill-rule:nonzero;"/>
    </g>
</svg>
