<?xml version="1.0" encoding="UTF-8" standalone="no"?>
<!DOCTYPE svg PUBLIC "-//W3C//DTD SVG 1.1//EN" "http://www.w3.org/Graphics/SVG/1.1/DTD/svg11.dtd">
<svg width="100%" height="100%" viewBox="0 0 1200 1200" version="1.1" xmlns="http://www.w3.org/2000/svg" xmlns:xlink="http://www.w3.org/1999/xlink" xml:space="preserve" xmlns:serif="http://www.serif.com/" style="fill-rule:evenodd;clip-rule:evenodd;stroke-linejoin:round;stroke-miterlimit:2;">
    <g transform="matrix(0.833333,0,0,0.833333,100,100)">
        <rect x="216" y="504" width="204.62" height="204.62"/>
        <rect x="504" y="504" width="204.62" height="204.62"/>
        <rect x="792" y="204" width="204.62" height="204.62"/>
        <rect x="216" y="804" width="204.62" height="204.62"/>
        <rect x="504" y="804" width="204.62" height="204.62"/>
        <g transform="matrix(0.43513,0,0,0.539154,201.262,-19.8753)">
            <path d="M884.94,376.71C892.737,373.874 901.381,375.011 907.901,379.687L1159.47,584.767C1163.44,588.31 1165.99,592.985 1165.99,598.232C1165.99,603.474 1163.3,608.72 1159.47,612.263L907.901,820.313C901.382,824.988 892.878,826.125 884.94,823.149C877.713,820.313 872.467,813.793 872.467,806.141L872.467,675.04L54.847,675.04C43.085,675.04 33.87,666.822 33.87,656.189L33.87,543.659C33.87,533.17 43.081,524.952 54.847,524.952L872.467,524.952L872.467,393.712C872.467,386.059 877.002,379.681 884.94,376.704L884.94,376.71Z"/>
        </g>
        <g transform="matrix(2.66441e-17,-0.43513,0.544556,3.33444e-17,582.275,1025.76)">
            <path d="M884.94,376.71C892.737,373.874 901.381,375.011 907.901,379.687L1159.47,584.767C1163.44,588.31 1165.99,592.985 1165.99,598.232C1165.99,603.474 1163.3,608.72 1159.47,612.263L907.901,820.313C901.382,824.988 892.878,826.125 884.94,823.149C877.713,820.313 872.467,813.793 872.467,806.141L872.467,675.04L54.847,675.04C43.085,675.04 33.87,666.822 33.87,656.189L33.87,543.659C33.87,533.17 43.081,524.952 54.847,524.952L872.467,524.952L872.467,393.712C872.467,386.059 877.002,379.681 884.94,376.704L884.94,376.71Z"/>
        </g>
    </g>
</svg>
