<?xml version="1.0" encoding="UTF-8" standalone="no"?>
<!DOCTYPE svg PUBLIC "-//W3C//DTD SVG 1.1//EN" "http://www.w3.org/Graphics/SVG/1.1/DTD/svg11.dtd">
<svg width="100%" height="100%" viewBox="0 0 1200 1200" version="1.1" xmlns="http://www.w3.org/2000/svg" xmlns:xlink="http://www.w3.org/1999/xlink" xml:space="preserve" xmlns:serif="http://www.serif.com/" style="fill-rule:evenodd;clip-rule:evenodd;stroke-linejoin:round;stroke-miterlimit:2;">
    <g transform="matrix(0.833333,0,0,0.833333,100,100)">
        <path d="M531.1,1170.2C530.475,1170.2 529.491,1170.31 529.346,1170.11L529.276,1170.11C527.116,1169.9 524.955,1169.32 522.952,1168.33C522.881,1168.29 522.842,1168.26 522.772,1168.22L522.737,1168.22L246.977,1030.36C243.688,1028.7 240.942,1026.11 239.071,1022.88L55.251,701.219C53.126,697.449 52.395,693.203 52.981,689.184L98.919,367.544C99.423,364.099 100.864,360.837 103.095,358.173L332.805,82.583C333.211,82.044 333.68,81.563 334.16,81.083L334.301,80.942C334.336,80.942 334.336,80.907 334.336,80.907L334.371,80.907C334.961,80.317 335.582,79.813 336.242,79.337L336.278,79.302C336.278,79.302 336.313,79.302 336.313,79.266L336.348,79.266L336.418,79.196L336.453,79.196C336.453,79.196 336.453,79.161 336.488,79.161C338.434,77.806 340.629,76.786 343.004,76.231L343.11,76.231L343.145,76.196L343.215,76.196C343.695,76.087 344.164,76.016 344.68,75.942L666.3,29.969C669.23,29.563 672.155,29.86 674.866,30.739L950.566,122.673C954.707,124.028 958.39,126.884 960.777,130.903C960.848,131.013 960.933,131.095 960.969,131.192L1144.76,452.812C1146.76,456.328 1147.57,460.422 1147.05,464.453L1101.09,832.083L1101.09,832.189C1101.06,832.236 1101.06,832.275 1101.06,832.275L1101.06,832.415C1100.65,835.161 1099.66,837.72 1098.2,840.001C1098.13,840.072 1098.09,840.146 1098.06,840.181L1098.06,840.216C1098.06,840.216 1098.01,840.216 1098.01,840.251C1097.97,840.298 1097.97,840.298 1097.97,840.337L1097.94,840.337L1097.94,840.372C1097.94,840.408 1097.9,840.408 1097.9,840.408L1097.9,840.443L1097.88,840.435C1097.88,840.47 1097.84,840.505 1097.84,840.544C1097.84,840.544 1097.81,840.544 1097.81,840.591C1097.77,840.591 1097.77,840.626 1097.77,840.626C1097.77,840.626 1097.69,840.697 1097.65,840.771C1097.65,840.806 1097.65,840.806 1097.62,840.806L1097.62,840.841C1097.58,840.888 1097.55,840.927 1097.51,840.962C1097.51,840.997 1097.42,841.033 1097.47,841.033C1097.28,841.286 1097.07,841.548 1096.88,841.802L867.134,1117.48C864.169,1121.02 859.993,1123.36 855.388,1124.03L533.798,1169.99C533.571,1169.99 533.352,1170.03 533.137,1170.06L532.962,1170.06L532.926,1170.1L532.856,1170.1C532.262,1170.15 531.684,1170.18 531.098,1170.18L531.1,1170.2ZM549.83,796.2L549.83,1129.87L842.98,1087.97L1055.87,832.438L849.85,667.598L549.83,796.2ZM268.79,999.35L512.35,1121.15L512.35,792.61L254.7,577.91L96.01,696.98L268.79,999.35ZM869.67,635.46L1068.06,794.22L1109.12,466L937.222,165.17L782.342,242.568L869.67,635.46ZM278.72,549.12L534.28,762.1L831.13,634.87L745.376,249.08L449.886,206.842L278.72,549.12ZM135.26,378.1L96.498,649.81L240.548,541.69L416.358,190.09L348.51,122.242L135.26,378.1ZM447.99,168.72L757.71,213.001L895.84,143.942L667.24,67.708L387.01,107.747L447.99,168.72Z" style="fill-rule:nonzero;"/>
    </g>
</svg>
