<?xml version="1.0" encoding="UTF-8" standalone="no"?>
<!DOCTYPE svg PUBLIC "-//W3C//DTD SVG 1.1//EN" "http://www.w3.org/Graphics/SVG/1.1/DTD/svg11.dtd">
<svg width="100%" height="100%" viewBox="0 0 1200 1200" version="1.1" xmlns="http://www.w3.org/2000/svg" xmlns:xlink="http://www.w3.org/1999/xlink" xml:space="preserve" xmlns:serif="http://www.serif.com/" style="fill-rule:evenodd;clip-rule:evenodd;stroke-linejoin:round;stroke-miterlimit:2;">
    <g transform="matrix(0.833333,0,0,0.833333,100,100)">
        <path d="M597,103.12C324.69,103.12 103.13,324.68 103.13,597C103.13,869.32 324.69,1090.88 597,1090.88C680.293,1090.88 762.69,1069.7 835.29,1029.61C844.72,1024.41 850.341,1014.31 849.79,1003.56C849.239,992.809 842.61,983.325 832.724,979.114C772.079,953.278 732.896,894.005 732.896,828.104C732.896,737.631 806.486,664.044 896.956,664.044C947.878,664.044 995.12,687.278 1026.53,727.782C1033.13,736.298 1044.03,740.27 1054.54,738.071C1065.07,735.856 1073.42,727.837 1076.04,717.399C1085.89,678.087 1090.89,637.583 1090.89,596.999C1090.89,324.679 869.33,103.119 597,103.119L597,103.12ZM1031.02,653.35C992.989,623.979 946.278,607.795 896.97,607.795C775.5,607.795 676.66,706.635 676.66,828.105C676.66,897.41 708.941,961.265 762.058,1002.35C709.89,1023.57 653.678,1034.63 597.008,1034.63C355.698,1034.63 159.388,838.306 159.388,596.996C159.388,355.676 355.698,159.366 597.008,159.366C838.328,159.366 1034.65,355.686 1034.65,596.996C1034.65,615.844 1033.44,634.668 1031.02,653.344L1031.02,653.35Z" style="fill-rule:nonzero;"/>
        <path d="M640.67,206.25C565.67,206.25 504.64,267.277 504.64,342.29C504.64,417.298 565.667,478.33 640.67,478.33C715.69,478.33 776.72,417.303 776.72,342.29C776.72,267.278 715.693,206.25 640.67,206.25ZM640.67,422.08C596.69,422.08 560.893,386.283 560.893,342.291C560.889,298.299 596.69,262.502 640.67,262.502C684.67,262.502 720.467,298.299 720.467,342.291C720.467,386.279 684.67,422.08 640.67,422.08Z" style="fill-rule:nonzero;"/>
        <path d="M503.76,492.29C503.76,417.278 442.733,356.25 367.71,356.25C292.69,356.25 231.66,417.277 231.66,492.29C231.66,567.298 292.687,628.33 367.71,628.33C442.73,628.33 503.76,567.299 503.76,492.29ZM287.92,492.29C287.92,448.298 323.717,412.501 367.717,412.501C411.717,412.501 447.514,448.298 447.514,492.29C447.514,536.282 411.717,572.079 367.717,572.079C323.717,572.079 287.92,536.282 287.92,492.29Z" style="fill-rule:nonzero;"/>
        <path d="M424.84,657.4C349.82,657.4 288.79,718.427 288.79,793.43C288.79,868.45 349.817,929.48 424.84,929.48C499.86,929.48 560.89,868.453 560.89,793.43C560.894,718.434 499.863,657.4 424.84,657.4ZM424.84,873.23C380.84,873.23 345.043,837.433 345.043,793.433C345.043,749.453 380.84,713.656 424.84,713.656C468.84,713.656 504.637,749.453 504.637,793.433C504.641,837.433 468.84,873.23 424.84,873.23Z" style="fill-rule:nonzero;"/>
    </g>
</svg>
