<?xml version="1.0" encoding="UTF-8" standalone="no"?>
<!DOCTYPE svg PUBLIC "-//W3C//DTD SVG 1.1//EN" "http://www.w3.org/Graphics/SVG/1.1/DTD/svg11.dtd">
<svg width="100%" height="100%" viewBox="0 0 1200 1200" version="1.1" xmlns="http://www.w3.org/2000/svg" xmlns:xlink="http://www.w3.org/1999/xlink" xml:space="preserve" xmlns:serif="http://www.serif.com/" style="fill-rule:evenodd;clip-rule:evenodd;stroke-linejoin:round;stroke-miterlimit:2;">
    <g transform="matrix(0.833333,0,0,0.833333,100,100)">
        <path d="M345.67,664.44L381.178,664.44C384.791,664.44 387.752,667.151 388.186,670.741C394.162,719.761 416.002,765.374 451.245,800.641C493.366,842.582 549.151,865.899 608.395,865.899C665.215,866.305 718.845,845.165 760.235,806.294C763.149,803.559 763.149,798.88 760.321,796.048L704.618,740.345C679.177,765.845 644.833,780.075 608.403,780.075C572.235,780.075 538.274,765.52 512.294,739.778C493.825,721.309 481.61,698.067 476.462,673.071C475.575,668.739 479.067,664.731 483.481,664.731L513.602,664.731C519.95,664.731 523.13,657.063 518.653,652.575L434.833,568.466C432.06,565.681 427.536,565.669 424.755,568.454L340.657,652.263C336.145,656.748 339.313,664.443 345.673,664.443L345.67,664.44Z" style="fill-rule:nonzero;"/>
        <path d="M509.16,536.23C512.004,538.796 516.301,538.582 519.023,535.882C541.511,513.671 570.707,500.757 602.843,499.066C667.007,496.187 722.293,541.367 733.683,602.876C734.453,607.04 731.187,610.892 726.965,611.083L698.899,612.38C692.551,612.669 689.731,620.494 694.434,624.775L775.782,698.755C778.696,701.408 783.211,701.193 785.86,698.263L859.626,616.841C863.887,612.138 860.344,604.638 854.008,604.939L816.317,606.728C805.747,496.678 710.347,413.088 598.687,418.248C545.683,421.057 496.317,443.123 459.327,481.26C456.542,484.139 456.773,488.807 459.749,491.494L509.16,536.23Z" style="fill-rule:nonzero;"/>
        <path d="M1047.7,1047.9C1098.6,1047.9 1140.03,1006.46 1140.03,955.525L1140.03,383.355C1140.03,332.453 1098.6,291.027 1047.7,291.027L907.4,291.027L837.716,152.177L362.326,152.177L292.642,291.027L152.362,291.027C101.46,291.027 60.034,332.449 60.034,383.355L60.034,955.525C60.034,1006.47 101.46,1047.9 152.362,1047.9L1047.7,1047.9ZM349.97,383.95L419.654,245.1L780.384,245.1L850.068,383.95L1047.12,383.348L1047.12,954.978L152.958,955.529L152.356,383.939L349.97,383.95Z" style="fill-rule:nonzero;"/>
    </g>
</svg>
