<?xml version="1.0" encoding="UTF-8" standalone="no"?>
<!DOCTYPE svg PUBLIC "-//W3C//DTD SVG 1.1//EN" "http://www.w3.org/Graphics/SVG/1.1/DTD/svg11.dtd">
<svg width="100%" height="100%" viewBox="0 0 1200 1200" version="1.1" xmlns="http://www.w3.org/2000/svg" xmlns:xlink="http://www.w3.org/1999/xlink" xml:space="preserve" xmlns:serif="http://www.serif.com/" style="fill-rule:evenodd;clip-rule:evenodd;stroke-linejoin:round;stroke-miterlimit:2;">
    <g transform="matrix(0.833333,0,0,0.833333,100,100)">
        <path d="M744,600C744.137,613.863 750.266,626.988 760.801,636L1096.8,924C1106.11,931.961 1118.1,936.062 1130.33,935.469C1142.56,934.876 1154.1,929.629 1162.59,920.805C1171.08,911.981 1175.88,900.246 1176,888L1176,312C1175.88,299.754 1171.08,288.02 1162.59,279.195C1154.1,270.371 1142.56,265.125 1130.33,264.531C1118.1,263.937 1106.11,268.039 1096.8,276L760.801,564C750.266,573.012 744.137,586.137 744,600ZM1080,783.72L865.8,600L1080,416.52L1080,783.72Z" style="fill-rule:nonzero;"/>
        <path d="M648,1080L648,120C648,102.852 638.852,87.004 624,78.43C609.148,69.856 590.852,69.856 576,78.43C561.148,87.004 552,102.852 552,120L552,1080C552,1097.15 561.148,1113 576,1121.57C590.852,1130.14 609.148,1130.14 624,1121.57C638.852,1113 648,1097.15 648,1080Z" style="fill-rule:nonzero;"/>
        <path d="M24,312L24,888C24.121,900.246 28.918,911.98 37.406,920.805C45.898,929.629 57.437,934.875 69.668,935.469C81.899,936.063 93.895,931.961 103.199,924L439.199,636C449.734,626.988 455.863,613.863 456,600C455.863,586.137 449.734,573.012 439.199,564L103.199,276C93.894,268.039 81.898,263.938 69.668,264.531C57.438,265.124 45.898,270.371 37.406,279.195C28.918,288.019 24.121,299.754 24,312ZM334.2,600L120,783.48L120,416.28L334.2,600Z" style="fill-rule:nonzero;"/>
    </g>
</svg>
