<?xml version="1.0" encoding="UTF-8" standalone="no"?>
<!DOCTYPE svg PUBLIC "-//W3C//DTD SVG 1.1//EN" "http://www.w3.org/Graphics/SVG/1.1/DTD/svg11.dtd">
<svg width="100%" height="100%" viewBox="0 0 1200 1200" version="1.1" xmlns="http://www.w3.org/2000/svg" xmlns:xlink="http://www.w3.org/1999/xlink" xml:space="preserve" xmlns:serif="http://www.serif.com/" style="fill-rule:evenodd;clip-rule:evenodd;stroke-linejoin:round;stroke-miterlimit:2;">
    <g transform="matrix(0.671859,0,0,0.671859,197.619,193.572)">
        <path d="M78.328,659.63C76.078,639.802 74.906,619.692 74.906,599.255C74.906,309.855 309.846,74.915 599.246,74.915C888.646,74.915 1123.59,309.855 1123.59,599.255C1123.59,619.88 1122.37,640.224 1120.07,660.193C1125.56,666.334 1131.09,674.209 1135.21,684.896C1144.02,707.63 1146.93,745.271 1122.41,811.736C1097.99,877.97 1106.62,959.816 1118.71,1009.32C1123.26,1027.97 1127.71,1041.71 1131.51,1046.58C1137.46,1054.22 1136.57,1065.14 1129.49,1071.75C1097.34,1101.8 943.023,1193.25 810.413,1079.25C745.772,1107.75 674.333,1123.6 599.233,1123.6C523.952,1123.6 452.373,1107.71 387.633,1079.07C254.973,1193.35 100.523,1101.8 68.323,1071.76C61.245,1065.14 60.401,1054.22 66.354,1046.58C70.104,1041.71 74.557,1027.97 79.151,1009.32C91.198,959.817 99.87,877.977 75.401,811.737C50.885,745.268 53.792,707.627 62.604,684.897C66.87,673.835 72.635,665.819 78.307,659.631L78.328,659.63ZM1093.33,1052.95C1050.2,1084.12 926.828,1141.54 823.088,1040.06C808.463,901.589 908.213,744.799 999.108,688.169C1032.25,667.544 1063.7,659.435 1085.59,678.841C1090.23,682.919 1096.47,688.403 1100.31,698.388C1107.3,716.435 1106.78,746.013 1087.33,798.748C1060.14,872.342 1068.95,963.228 1082.36,1018.17C1085.78,1032.14 1089.62,1043.95 1093.33,1052.95L1093.33,1052.95ZM104.588,1052.95C108.244,1043.95 112.135,1032.14 115.557,1018.17C128.963,963.231 137.729,872.349 110.588,798.749C91.135,746.015 90.619,716.437 97.557,698.389C101.448,688.405 107.682,682.92 112.276,678.842C134.214,659.436 165.667,667.545 198.807,688.17C289.651,744.795 389.447,901.54 374.777,1040.06C271.087,1141.54 147.667,1084.12 104.587,1052.95L104.588,1052.95ZM1084.85,635.58C1085.69,623.58 1086.16,611.486 1086.16,599.252C1086.16,330.512 868.001,112.362 599.271,112.362C330.54,112.362 112.38,330.522 112.38,599.252C112.38,611.393 112.802,623.44 113.693,635.346C143.74,624.893 180.631,632.721 218.603,656.393C319.663,719.346 430.203,894.993 411.543,1048.6C469.293,1072.79 532.723,1086.15 599.283,1086.15C665.564,1086.15 728.803,1072.88 786.413,1048.84C767.616,895.178 878.241,719.358 979.303,656.398C1017.55,632.586 1054.68,624.804 1084.86,635.586L1084.85,635.58ZM599.268,646.08C522.721,646.08 458.828,718.689 458.828,809.9C458.828,901.166 522.719,973.77 599.268,973.77C675.817,973.77 739.708,901.161 739.708,809.9C739.708,718.681 675.817,646.08 599.268,646.08ZM599.268,683.533C657.112,683.533 702.248,740.955 702.248,809.903C702.248,878.856 657.107,936.323 599.268,936.323C541.429,936.323 496.288,878.854 496.288,809.903C496.288,740.952 541.429,683.533 599.268,683.533ZM733.558,326.853C680.167,363.931 671.777,448.593 718.652,515.993C765.48,583.399 847.752,605.102 901.132,568.024C954.523,530.899 962.913,446.244 916.038,378.834C869.21,311.381 786.938,289.725 733.558,326.85L733.558,326.853ZM464.738,327.181C411.488,290.197 329.458,311.806 282.768,379.025C236.034,446.244 244.377,530.665 297.627,567.655C350.877,604.645 432.867,583.03 479.597,515.811C526.285,448.592 517.941,364.211 464.738,327.181ZM754.948,357.556C793.526,330.744 851.464,351.462 885.308,400.212C919.199,448.915 918.402,510.412 879.777,537.232C841.199,564.091 783.261,543.373 749.417,494.623C715.526,445.92 716.323,384.423 754.948,357.563L754.948,357.556ZM443.368,357.931C481.759,384.65 482.556,445.915 448.852,494.431C415.149,542.993 357.446,563.572 319.012,536.9C280.574,510.181 279.778,448.916 313.528,400.4C347.231,351.884 404.887,331.212 443.368,357.931Z" style="stroke:rgb(3,0,0);stroke-width:41.68px;"/>
    </g>
</svg>
