<?xml version="1.0" encoding="UTF-8" standalone="no"?>
<!DOCTYPE svg PUBLIC "-//W3C//DTD SVG 1.1//EN" "http://www.w3.org/Graphics/SVG/1.1/DTD/svg11.dtd">
<svg width="100%" height="100%" viewBox="0 0 1200 1200" version="1.1" xmlns="http://www.w3.org/2000/svg" xmlns:xlink="http://www.w3.org/1999/xlink" xml:space="preserve" xmlns:serif="http://www.serif.com/" style="fill-rule:evenodd;clip-rule:evenodd;stroke-linejoin:round;stroke-miterlimit:2;">
    <g transform="matrix(0.833333,0,0,0.833333,100,100)">
        <path d="M337.5,806.25L112.5,806.25C81.43,806.25 56.25,831.43 56.25,862.5C56.25,893.57 81.43,918.75 112.5,918.75L201.695,918.75L16.465,1103.98C6.301,1114.16 0,1128.23 0,1143.75C0,1174.82 25.18,1200 56.25,1200C71.773,1200 85.836,1193.7 96.02,1183.52L281.25,998.31L281.25,1087.51C281.25,1118.58 306.43,1143.76 337.5,1143.76C368.57,1143.76 393.75,1118.58 393.75,1087.51L393.75,862.505C393.75,831.435 368.57,806.255 337.5,806.255L337.5,806.25ZM600,431.25C506.793,431.25 431.25,506.793 431.25,600C431.25,693.207 506.793,768.75 600,768.75C693.207,768.75 768.75,693.207 768.75,600C768.75,506.793 693.207,431.25 600,431.25ZM1200,56.25C1200,25.18 1174.82,0 1143.75,0C1128.23,0 1114.16,6.301 1103.98,16.48L918.75,201.69L918.75,112.495C918.75,81.425 893.57,56.245 862.5,56.245C831.43,56.245 806.25,81.425 806.25,112.495L806.25,337.495C806.25,368.565 831.43,393.745 862.5,393.745L1087.5,393.745C1118.57,393.745 1143.75,368.565 1143.75,337.495C1143.75,306.425 1118.57,281.245 1087.5,281.245L998.305,281.245L1183.54,96.015C1193.7,85.831 1200,71.788 1200,56.245L1200,56.25Z" style="fill-rule:nonzero;"/>
    </g>
</svg>
