<?xml version="1.0" encoding="UTF-8" standalone="no"?>
<!DOCTYPE svg PUBLIC "-//W3C//DTD SVG 1.1//EN" "http://www.w3.org/Graphics/SVG/1.1/DTD/svg11.dtd">
<svg width="100%" height="100%" viewBox="0 0 1200 1200" version="1.1" xmlns="http://www.w3.org/2000/svg" xmlns:xlink="http://www.w3.org/1999/xlink" xml:space="preserve" xmlns:serif="http://www.serif.com/" style="fill-rule:evenodd;clip-rule:evenodd;stroke-linejoin:round;stroke-miterlimit:2;">
    <g transform="matrix(0.75,0,0,0.75,150,150)">
        <path d="M577.32,0C487.164,40.793 411.48,99.953 356.63,182.89C297.837,277.945 266.044,414 337.88,511.5C310.493,341.05 419.751,191.37 568.08,118.99C468.02,178.373 382.87,283.81 391.98,406.09C435.445,273.65 546.8,189.95 680.09,160.18C844.21,129.821 1000.05,184.18 1124.71,291.81C1007.14,200.892 859.35,153.7 712.67,193.876C638.576,216.825 566.42,263.31 539.26,339.406C672.51,220.336 865.61,241.488 1004.78,337.976C905.116,280.499 769.03,256.249 668.9,326.542C786.04,303.069 896.92,341.429 985.69,418.827C1121.38,546.147 1161.28,729.677 1124.67,908.247C1139.65,807.487 1130.38,709.127 1088.43,615.737C1038.87,513.697 937.998,411.417 815.018,422.827C966.038,484.866 1038.32,643.697 1031.54,800.437C1026.86,687.317 975.94,564.497 866.618,516.137C946.149,602.016 971.688,713.517 953.88,827.617C919.161,1006.21 789.17,1135.59 622.82,1200C712.929,1159.22 788.64,1100.06 843.46,1017.18C902.429,921.9 933.741,786.677 862.37,688.807C889.565,859.007 780.229,1008.96 631.98,1081.06C732.01,1021.66 817.32,916.197 808.22,793.887C764.677,926.247 653.38,1010.13 520.07,1039.82C356.04,1070.31 200,1015.74 75.43,908.187C192.96,999.058 341.02,1046.42 487.63,1006.09C561.677,983.093 634.05,936.542 661.09,860.369C527.76,979.229 334.68,958.889 195.41,862.057C295.14,919.643 431.05,943.514 531.24,873.412C394.96,900.717 267.79,844.373 177.12,742.942C70.84,614.712 42.48,452.752 75.47,291.752C60.521,392.582 69.81,490.712 111.697,584.182C161.252,685.952 261.987,788.472 384.837,777.072C233.957,715.095 161.807,555.982 168.597,399.492C173.257,512.562 224.195,635.532 333.487,683.902C253.987,598.054 228.397,486.402 246.225,372.342C280.799,193.792 411.065,64.312 577.315,0.002L577.32,0ZM479.484,684.61C390.011,556.22 545.371,391.57 678.274,475.11C825.474,567.684 709.094,801.05 546.774,737.28C519.676,726.975 496.215,708.194 479.485,684.608L479.484,684.61Z"/>
    </g>
</svg>
