<?xml version="1.0" encoding="UTF-8" standalone="no"?>
<!DOCTYPE svg PUBLIC "-//W3C//DTD SVG 1.1//EN" "http://www.w3.org/Graphics/SVG/1.1/DTD/svg11.dtd">
<svg width="100%" height="100%" viewBox="0 0 1200 1200" version="1.1" xmlns="http://www.w3.org/2000/svg" xmlns:xlink="http://www.w3.org/1999/xlink" xml:space="preserve" xmlns:serif="http://www.serif.com/" style="fill-rule:evenodd;clip-rule:evenodd;stroke-linejoin:round;stroke-miterlimit:2;">
    <g transform="matrix(0.75,0,0,0.75,150,150)">
        <path d="M1038.4,122L161.56,122C121.372,122.043 82.841,138.023 54.42,166.434C25.998,194.848 10.01,233.375 9.955,273.554L9.955,926.394C9.998,966.589 25.982,1005.12 54.404,1033.54C82.826,1061.96 121.361,1077.95 161.554,1077.99L1038.39,1077.99C1078.58,1077.94 1117.11,1061.95 1145.51,1033.53C1173.92,1005.11 1189.9,966.579 1189.95,926.388L1189.95,273.548C1189.89,233.368 1173.91,194.849 1145.5,166.438C1117.09,138.028 1078.57,122.043 1038.39,121.989L1038.4,122ZM161.559,182L1038.4,182C1062.67,182.031 1085.94,191.688 1103.11,208.852C1120.27,226.016 1129.93,249.286 1129.96,273.559L1129.96,813.559L933.959,617.199C914.74,598 888.533,587.449 861.373,587.969C834.209,588.489 808.432,600.039 789.959,619.961L686.319,731.961L447.519,471.481C429.203,451.176 403.3,439.364 375.96,438.84C348.651,437.938 322.233,448.598 303.198,468.199L69.958,701.159L69.958,273.559C69.989,249.282 79.653,226.004 96.825,208.84C113.997,191.672 137.278,182.02 161.559,182ZM1038.4,1018L161.56,1018C137.271,1017.98 113.986,1008.32 96.81,991.148C79.638,973.972 69.978,950.687 69.958,926.398L69.958,785.998L345.598,510.558C353.496,503.175 363.864,498.999 374.676,498.839C385.598,499.003 395.965,503.679 403.317,511.761L764.517,905.841C771.763,913.743 782.673,917.181 793.142,914.857C803.607,912.532 812.04,904.802 815.263,894.58C818.482,884.353 816.005,873.185 808.759,865.283L726.958,776.002L833.958,660.522C841.314,652.533 851.622,647.909 862.478,647.721C873.302,647.607 883.724,651.81 891.439,659.401L1129.96,898.401L1129.96,926.401C1129.94,950.682 1120.29,973.963 1103.12,991.135C1085.95,1008.31 1062.68,1017.97 1038.4,1018L1038.4,1018Z" style="fill-rule:nonzero;"/>
        <path d="M674.68,516C705.383,516.012 734.836,503.824 756.551,482.117C778.27,460.414 790.473,430.969 790.481,400.265C790.489,369.562 778.297,340.113 756.59,318.398C734.883,296.683 705.438,284.484 674.735,284.48C644.032,284.476 614.583,296.671 592.872,318.378C571.157,340.089 558.962,369.534 558.962,400.237C559.024,430.913 571.235,460.315 592.923,482.01C614.611,503.701 644.005,515.924 674.681,515.998L674.68,516ZM674.68,344.48C689.473,344.468 703.66,350.336 714.125,360.789C724.59,371.242 730.473,385.422 730.48,400.215C730.488,415.004 724.617,429.192 714.164,439.653C703.707,450.118 689.523,455.997 674.734,456.001C659.941,456.005 645.757,450.13 635.296,439.673C624.835,429.216 618.96,415.032 618.96,400.239C619.011,385.473 624.898,371.321 635.331,360.872C645.769,350.419 659.909,344.517 674.679,344.442L674.68,344.48Z" style="fill-rule:nonzero;"/>
    </g>
</svg>
