<?xml version="1.0" encoding="UTF-8" standalone="no"?>
<!DOCTYPE svg PUBLIC "-//W3C//DTD SVG 1.1//EN" "http://www.w3.org/Graphics/SVG/1.1/DTD/svg11.dtd">
<svg width="100%" height="100%" viewBox="0 0 1200 1200" version="1.1" xmlns="http://www.w3.org/2000/svg" xmlns:xlink="http://www.w3.org/1999/xlink" xml:space="preserve" xmlns:serif="http://www.serif.com/" style="fill-rule:evenodd;clip-rule:evenodd;stroke-linejoin:round;stroke-miterlimit:2;">
    <g transform="matrix(4.59243e-17,-0.75,0.75,4.59243e-17,150,1050)">
        <path d="M262.5,75C179.664,75 112.5,142.164 112.5,225C112.5,307.836 179.664,375 262.5,375C345.336,375 412.5,307.836 412.5,225C412.5,142.164 345.336,75 262.5,75ZM262.5,450C179.664,450 112.5,517.164 112.5,600C112.5,682.836 179.664,750 262.5,750C345.336,750 412.5,682.836 412.5,600C412.5,517.164 345.336,450 262.5,450ZM262.5,825C179.664,825 112.5,892.164 112.5,975C112.5,1057.84 179.664,1125 262.5,1125C345.336,1125 412.5,1057.84 412.5,975C412.5,892.164 345.336,825 262.5,825ZM600,112.5C537.863,112.5 487.5,162.863 487.5,225C487.5,287.137 537.863,337.5 600,337.5C662.137,337.5 712.5,287.137 712.5,225C712.5,162.863 662.137,112.5 600,112.5ZM862.5,150C821.062,150 787.5,183.562 787.5,225C787.5,266.438 821.062,300 862.5,300C903.938,300 937.5,266.438 937.5,225C937.5,183.562 903.938,150 862.5,150ZM1050,262.5C1070.7,262.5 1087.5,245.699 1087.5,225C1087.5,204.301 1070.7,187.5 1050,187.5C1029.3,187.5 1012.5,204.301 1012.5,225C1012.5,245.699 1029.3,262.5 1050,262.5ZM600,487.5C537.863,487.5 487.5,537.863 487.5,600C487.5,662.137 537.863,712.5 600,712.5C662.137,712.5 712.5,662.137 712.5,600C712.5,537.863 662.137,487.5 600,487.5ZM862.5,525C821.062,525 787.5,558.562 787.5,600C787.5,641.438 821.062,675 862.5,675C903.938,675 937.5,641.438 937.5,600C937.5,558.562 903.938,525 862.5,525ZM1050,562.5C1029.3,562.5 1012.5,579.301 1012.5,600C1012.5,620.699 1029.3,637.5 1050,637.5C1070.7,637.5 1087.5,620.699 1087.5,600C1087.5,579.301 1070.7,562.5 1050,562.5ZM600,862.5C537.863,862.5 487.5,912.863 487.5,975C487.5,1037.14 537.863,1087.5 600,1087.5C662.137,1087.5 712.5,1037.14 712.5,975C712.5,912.863 662.137,862.5 600,862.5ZM862.5,900C821.062,900 787.5,933.562 787.5,975C787.5,1016.44 821.062,1050 862.5,1050C903.938,1050 937.5,1016.44 937.5,975C937.5,933.562 903.938,900 862.5,900ZM1050,937.5C1029.3,937.5 1012.5,954.301 1012.5,975C1012.5,995.699 1029.3,1012.5 1050,1012.5C1070.7,1012.5 1087.5,995.699 1087.5,975C1087.5,954.301 1070.7,937.5 1050,937.5Z" style="fill-rule:nonzero;"/>
    </g>
</svg>
