<?xml version="1.0" encoding="UTF-8" standalone="no"?>
<!DOCTYPE svg PUBLIC "-//W3C//DTD SVG 1.1//EN" "http://www.w3.org/Graphics/SVG/1.1/DTD/svg11.dtd">
<svg width="100%" height="100%" viewBox="0 0 1200 1200" version="1.1" xmlns="http://www.w3.org/2000/svg" xmlns:xlink="http://www.w3.org/1999/xlink" xml:space="preserve" xmlns:serif="http://www.serif.com/" style="fill-rule:evenodd;clip-rule:evenodd;stroke-linejoin:round;stroke-miterlimit:2;">
    <g transform="matrix(0.833333,0,0,0.833333,100,100)">
        <path d="M1154.2,887.07C1153.56,885.918 1152.89,884.777 1152.03,883.769L513.978,33.009C512.298,30.681 510.127,27.13 507.509,25.556C507.509,25.556 507.509,23.998 507.486,23.998L507.474,23.998C506.732,23.998 505.951,24.669 505.146,24.322C500.275,22.162 495.017,22.318 490.314,23.626C490.279,23.638 490.279,23.998 490.279,23.998L490.244,23.998C489.138,23.998 488.084,24.107 487.064,24.56C487.064,24.56 487.064,23.998 487.041,23.998L487.029,23.998C483.189,23.998 479.865,29.83 477.623,33.74C477.345,34.162 477.119,35.154 476.88,35.662L51.43,886.812C50.735,888.12 50.184,889.644 49.774,891.058C48.864,894.191 48.696,897.417 49.212,900.515C49.704,903.659 50.88,906.741 52.763,909.503C53.591,910.691 54.54,911.843 55.63,912.862L321.23,1180.1C324.386,1183.37 328.585,1188 333.41,1188L334.152,1188C335.015,1188 335.89,1186.6 336.73,1186.6C339.25,1186.6 341.711,1185.39 343.976,1184.55L1141.41,918.328C1142.63,917.98 1143.82,917.273 1144.96,916.683C1147.29,915.449 1149.37,913.73 1151.11,911.871C1153.24,909.507 1154.76,906.699 1155.68,903.769C1156.62,900.757 1156.96,897.515 1156.54,894.3C1156.2,891.843 1155.43,889.359 1154.21,887.078L1154.2,887.07ZM321.36,1117.29L97.03,892.91L455.98,174.97L321.36,1117.29ZM363.157,1131.62L510.437,100.618L1099.57,886.138L363.157,1131.62Z" style="fill-rule:nonzero;"/>
    </g>
</svg>
