<?xml version="1.0" encoding="UTF-8" standalone="no"?>
<!DOCTYPE svg PUBLIC "-//W3C//DTD SVG 1.1//EN" "http://www.w3.org/Graphics/SVG/1.1/DTD/svg11.dtd">
<svg width="100%" height="100%" viewBox="0 0 1200 1200" version="1.1" xmlns="http://www.w3.org/2000/svg" xmlns:xlink="http://www.w3.org/1999/xlink" xml:space="preserve" xmlns:serif="http://www.serif.com/" style="fill-rule:evenodd;clip-rule:evenodd;stroke-linejoin:round;stroke-miterlimit:2;">
    <g transform="matrix(0.833333,0,0,0.833333,100,100)">
        <path d="M768,108L432,108C379.199,108 336,151.199 336,204L336,996C336,1048.8 379.199,1092 432,1092L768,1092C820.801,1092 864,1048.8 864,996L864,204C864,151.199 820.801,108 768,108ZM840,996C840,1035.6 807.602,1068 768,1068L432,1068C392.398,1068 360,1035.6 360,996L360,204C360,164.398 392.398,132 432,132L456,132C462,132 468,138 468,144L468,156C468,169.199 478.801,180 492,180L708,180C721.199,180 732,169.199 732,156L732,144C732,138 738,132 744,132L768,132C807.602,132 840,164.398 840,204L840,996Z" style="fill-rule:nonzero;"/>
        <path d="M732,720L468,720C454.801,720 444,709.199 444,696L444,528C444,514.801 454.801,504 468,504L516,504C519.602,504 525.602,501.602 528,499.199L547.199,480C554.398,472.801 566.398,468 576,468L624,468C633.602,468 645.602,472.801 652.801,480L672,499.199C674.398,501.598 680.398,504 684,504L732,504C745.199,504 756,514.801 756,528L756,696C756,709.199 745.199,720 732,720ZM468,528L468,696L732,696L732,528L684,528C674.398,528 662.398,523.199 655.199,516L636,496.801C633.602,494.403 627.602,492 624,492L576,492C572.398,492 566.398,494.399 564,496.801L544.801,516C537.602,523.199 525.602,528 516,528L468,528Z" style="fill-rule:nonzero;"/>
        <path d="M600,672C560.398,672 528,639.602 528,600C528,560.398 560.398,528 600,528C639.602,528 672,560.398 672,600C672,639.602 639.602,672 600,672ZM600,552C573.602,552 552,573.602 552,600C552,626.398 573.602,648 600,648C626.398,648 648,626.398 648,600C648,573.602 626.398,552 600,552Z" style="fill-rule:nonzero;"/>
    </g>
</svg>
