<?xml version="1.0" encoding="UTF-8" standalone="no"?>
<!DOCTYPE svg PUBLIC "-//W3C//DTD SVG 1.1//EN" "http://www.w3.org/Graphics/SVG/1.1/DTD/svg11.dtd">
<svg width="100%" height="100%" viewBox="0 0 1200 1200" version="1.1" xmlns="http://www.w3.org/2000/svg" xmlns:xlink="http://www.w3.org/1999/xlink" xml:space="preserve" xmlns:serif="http://www.serif.com/" style="fill-rule:evenodd;clip-rule:evenodd;stroke-linejoin:round;stroke-miterlimit:2;">
    <g transform="matrix(0.833333,0,0,0.833333,100,100)">
        <path d="M554.44,869.79L558.374,891.028L537.136,894.962L533.202,873.724L554.44,869.79Z" style="fill-rule:nonzero;"/>
        <path d="M513.76,876.8L517.694,898.038L496.456,901.972L492.522,880.734L513.76,876.8Z" style="fill-rule:nonzero;"/>
        <path d="M472.41,885.85L476.344,907.088L455.106,911.022L451.172,889.784L472.41,885.85Z" style="fill-rule:nonzero;"/>
        <path d="M371.97,925.74L368.036,904.502L389.274,900.568L393.208,921.806L371.97,925.74Z" style="fill-rule:nonzero;"/>
        <path d="M643.98,870.79L665.218,874.724L661.284,895.962L640.046,892.028L643.98,870.79Z" style="fill-rule:nonzero;"/>
        <path d="M685.94,878.03L707.178,881.964L703.244,903.202L682.006,899.268L685.94,878.03Z" style="fill-rule:nonzero;"/>
        <path d="M747.52,888.05L743.586,909.288L722.348,905.354L726.282,884.116L747.52,888.05Z" style="fill-rule:nonzero;"/>
        <path d="M809.55,900.78L830.788,904.714L826.854,925.952L805.616,922.018L809.55,900.78Z" style="fill-rule:nonzero;"/>
        <path d="M644.5,562.29L654.699,579.958L637.031,590.157L626.832,572.489L644.5,562.29Z" style="fill-rule:nonzero;"/>
        <path d="M680.82,540.67L691.019,558.338L673.351,568.537L663.152,550.869L680.82,540.67Z" style="fill-rule:nonzero;"/>
        <path d="M717.77,520.68L727.969,538.348L710.301,548.547L700.102,530.879L717.77,520.68Z" style="fill-rule:nonzero;"/>
        <path d="M754.09,499.07L764.289,516.738L746.621,526.937L736.422,509.269L754.09,499.07Z" style="fill-rule:nonzero;"/>
        <path d="M789.38,478.05L799.579,495.718L781.911,505.917L771.712,488.249L789.38,478.05Z" style="fill-rule:nonzero;"/>
        <path d="M409.94,478.37L427.608,488.569L417.409,506.237L399.741,496.038L409.94,478.37Z" style="fill-rule:nonzero;"/>
        <path d="M453.13,528.53L435.462,518.331L445.661,500.663L463.329,510.862L453.13,528.53Z" style="fill-rule:nonzero;"/>
        <path d="M489.01,550.15L471.342,539.951L481.541,522.283L499.209,532.482L489.01,550.15Z" style="fill-rule:nonzero;"/>
        <path d="M561.97,592.12L544.302,581.921L554.501,564.253L572.169,574.452L561.97,592.12Z" style="fill-rule:nonzero;"/>
        <path d="M525.08,569.9L507.412,559.701L517.611,542.033L535.279,552.232L525.08,569.9Z" style="fill-rule:nonzero;"/>
        <rect x="589.2" y="721.2" width="21.602" height="21.602" style="fill-rule:nonzero;"/>
        <rect x="589.2" y="763.2" width="21.602" height="21.602" style="fill-rule:nonzero;"/>
        <path d="M609.6,847.2L589.198,847.2L589.198,864.001L574.8,866.399L578.398,886.801L595.199,884.399L603.601,884.399L620.398,886.801L624,866.399L609.602,864.001L609.6,847.2Z" style="fill-rule:nonzero;"/>
        <rect x="589.2" y="805.2" width="21.602" height="21.602" style="fill-rule:nonzero;"/>
        <rect x="589.2" y="679.2" width="21.602" height="21.602" style="fill-rule:nonzero;"/>
        <rect x="589.2" y="637.2" width="21.602" height="21.602" style="fill-rule:nonzero;"/>
        <path d="M810.8,426.49L803.991,407.26L823.221,400.451L830.03,419.681L810.8,426.49Z" style="fill-rule:nonzero;"/>
        <path d="M789.33,367.5L808.56,360.691L815.369,379.921L796.139,386.73L789.33,367.5Z" style="fill-rule:nonzero;"/>
        <path d="M782.05,346.22L775.241,326.99L794.471,320.181L801.28,339.411L782.05,346.22Z" style="fill-rule:nonzero;"/>
        <path d="M754.38,268.32L747.571,249.09L766.801,242.281L773.61,261.511L754.38,268.32Z" style="fill-rule:nonzero;"/>
        <path d="M847.2,463.2L843.602,454.802L836.399,439.2L818.399,446.399L822.001,459.602L808.802,468L818.4,486L832.802,477.602L842.399,489.602L858.001,475.2L847.2,463.2Z" style="fill-rule:nonzero;"/>
        <path d="M885.5,507.73L869.988,520.976L856.742,505.464L872.254,492.218L885.5,507.73Z" style="fill-rule:nonzero;"/>
        <path d="M883.95,536.91L899.462,523.664L912.708,539.176L897.196,552.422L883.95,536.91Z" style="fill-rule:nonzero;"/>
        <path d="M910.26,568.48L925.772,555.234L939.018,570.746L923.506,583.992L910.26,568.48Z" style="fill-rule:nonzero;"/>
        <path d="M993.86,636.01L978.348,649.256L965.102,633.744L980.614,620.498L993.86,636.01Z" style="fill-rule:nonzero;"/>
        <path d="M340.8,475.2L356.398,489.602L366,477.602L380.398,486L389.999,468L376.8,459.602L381.601,446.399L362.398,439.2L356.398,454.802L351.601,463.2L340.8,475.2Z" style="fill-rule:nonzero;"/>
        <path d="M330.13,520.45L314.618,507.204L327.864,491.692L343.376,504.938L330.13,520.45Z" style="fill-rule:nonzero;"/>
        <path d="M302.44,551.95L286.928,538.704L300.174,523.192L315.686,536.438L302.44,551.95Z" style="fill-rule:nonzero;"/>
        <path d="M259.28,570.55L272.526,555.038L288.038,568.284L274.792,583.796L259.28,570.55Z" style="fill-rule:nonzero;"/>
        <path d="M218.01,619.41L233.522,632.656L220.276,648.168L204.764,634.922L218.01,619.41Z" style="fill-rule:nonzero;"/>
        <path d="M387.85,425.63L368.62,418.821L375.429,399.591L394.659,406.4L387.85,425.63Z" style="fill-rule:nonzero;"/>
        <path d="M401.27,387.26L382.04,380.451L388.849,361.221L408.079,368.03L401.27,387.26Z" style="fill-rule:nonzero;"/>
        <path d="M416.42,347.66L397.19,340.851L403.999,321.621L423.229,328.43L416.42,347.66Z" style="fill-rule:nonzero;"/>
        <path d="M432.51,241.66L451.74,248.469L444.931,267.699L425.701,260.89L432.51,241.66Z" style="fill-rule:nonzero;"/>
        <path d="M885.6,266.4L745.2,186.002L454.8,186.002L314.4,266.4L168,518.4L168,681.6L314.4,933.6L454.8,1014L745.2,1014L885.6,933.6L1032,681.6L1032,518.4L885.6,266.4ZM1005.6,520.8L832.8,723.6L616.8,598.8L610.8,587.999L610.8,338.399L873.6,290.399L1005.6,520.8ZM733.2,992.4L465.6,992.4L376.799,741.6L592.799,616.8L605.998,616.8L821.998,741.6L733.2,992.4ZM438,288L417.602,280.801L416.403,284.402L350.403,272.402L439.204,220.8L439.204,222L459.602,229.199L466.801,208.801L735.601,208.801L742.8,229.199L763.198,222L763.198,220.8L851.999,272.402L785.999,284.402L784.8,280.801L764.402,288L607.202,316.801L597.6,316.801L438,288ZM326.4,289.199L589.2,337.199L589.2,586.799L583.2,597.6L367.2,722.4L194.4,519.6L326.4,289.199ZM193.2,680.399L206.399,664.797L190.797,651.598L189.598,652.797L189.598,549.597L233.996,601.199L231.597,603.598L247.199,616.797L351.599,739.197L356.4,747.595L410.4,898.795L415.201,920.397L418.803,919.198L440.405,982.8L351.604,931.198L352.803,931.198L348.002,909.596L326.4,914.397L193.2,680.399ZM871.2,911.999L849.598,907.198L844.797,928.8L845.996,928.8L757.195,980.402L778.797,916.8L782.399,918L787.2,896.398L841.2,745.198L846.001,736.799L950.401,614.399L966.003,601.2L963.604,598.802L1008,547.2L1008,650.4L1006.8,649.201L991.201,662.4L1004.4,678.002L871.2,911.999Z" style="fill-rule:nonzero;"/>
    </g>
</svg>
