<?xml version="1.0" encoding="UTF-8" standalone="no"?>
<!DOCTYPE svg PUBLIC "-//W3C//DTD SVG 1.1//EN" "http://www.w3.org/Graphics/SVG/1.1/DTD/svg11.dtd">
<svg width="100%" height="100%" viewBox="0 0 1200 1200" version="1.1" xmlns="http://www.w3.org/2000/svg" xmlns:xlink="http://www.w3.org/1999/xlink" xml:space="preserve" xmlns:serif="http://www.serif.com/" style="fill-rule:evenodd;clip-rule:evenodd;stroke-linejoin:round;stroke-miterlimit:2;">
    <g transform="matrix(1,0,0,1,-0.025406,124.37)">
        <path d="M937.62,582.23C888.628,582.23 848.772,622.085 848.772,671.078C848.772,678.383 849.905,685.383 851.581,692.172L670.741,777.84C657.913,760.832 639.374,748.36 617.772,743.949L617.772,527.119C658.268,518.853 688.85,482.982 688.85,440.064C688.85,432.759 687.717,425.759 686.041,418.97L832.941,349.384C841.808,345.189 845.609,334.599 841.398,325.736C837.203,316.869 826.593,313.099 817.75,317.279L670.76,386.92C654.537,365.385 628.987,351.24 600.022,351.24C571.057,351.24 545.506,365.385 529.284,386.92L348.444,301.252C350.12,294.447 351.253,287.463 351.253,280.158C351.253,272.853 350.12,265.853 348.444,259.064L529.284,173.396C545.507,194.931 571.042,209.076 600.022,209.076C629.002,209.076 654.538,194.916 670.76,173.396L851.6,259.064C849.924,265.869 848.791,272.853 848.791,280.158C848.791,323.053 879.373,358.947 919.869,367.213L919.869,546.703C919.869,556.531 927.811,564.473 937.639,564.473C947.468,564.473 955.409,556.532 955.409,546.703L955.413,367.213C995.909,358.947 1026.49,323.076 1026.49,280.158C1026.49,231.166 986.636,191.31 937.643,191.31C908.663,191.31 883.127,205.47 866.905,226.99L686.065,141.322C687.737,134.517 688.874,127.533 688.874,120.228C688.874,71.236 649.019,31.38 600.026,31.38C551.033,31.38 511.178,71.235 511.178,120.228C511.178,127.533 512.311,134.533 513.987,141.322L333.147,226.99C316.924,205.455 291.389,191.31 262.409,191.31C213.417,191.31 173.561,231.165 173.561,280.158C173.561,329.151 213.416,369.006 262.409,369.006C291.389,369.006 316.925,354.861 333.147,333.326L513.987,418.994C512.315,425.799 511.178,432.783 511.178,440.088C511.178,482.983 541.76,518.877 582.256,527.143L582.256,743.973C560.647,748.383 542.1,760.856 529.287,777.864L348.447,692.196C350.123,685.391 351.256,678.407 351.256,671.102C351.256,628.207 320.674,592.313 280.178,584.047L280.178,404.557C280.178,394.729 272.213,386.787 262.408,386.787C252.603,386.787 244.638,394.728 244.638,404.557L244.638,584.047C204.142,592.313 173.56,628.184 173.56,671.102C173.56,720.094 213.415,759.95 262.408,759.95C291.388,759.95 316.924,745.805 333.146,724.27L513.986,809.938C512.314,816.743 511.177,823.727 511.177,831.032C511.177,880.024 551.032,919.88 600.025,919.88C649.018,919.88 688.873,880.025 688.873,831.032C688.873,823.727 687.74,816.727 686.064,809.938L866.904,724.27C883.127,745.805 908.677,759.95 937.642,759.95C986.634,759.95 1026.49,720.095 1026.49,671.102C1026.49,622.109 986.635,582.254 937.642,582.254L937.62,582.23ZM937.62,226.84C967.011,226.84 990.929,250.758 990.929,280.149C990.929,309.54 967.011,333.458 937.62,333.458C908.229,333.458 884.311,309.54 884.311,280.149C884.311,250.754 908.229,226.84 937.62,226.84ZM600,66.91C629.391,66.91 653.309,90.828 653.309,120.219C653.309,149.61 629.391,173.528 600,173.528C570.609,173.528 546.691,149.61 546.691,120.219C546.691,90.824 570.609,66.91 600,66.91ZM262.38,333.45C232.989,333.45 209.071,309.532 209.071,280.141C209.071,250.75 232.989,226.832 262.38,226.832C291.771,226.832 315.689,250.75 315.689,280.141C315.689,309.532 291.771,333.45 262.38,333.45ZM262.38,724.38C232.989,724.38 209.071,700.462 209.071,671.071C209.071,641.68 232.989,617.762 262.38,617.762C291.771,617.762 315.689,641.68 315.689,671.071C315.689,700.462 291.771,724.38 262.38,724.38ZM546.69,440.07C546.69,410.679 570.608,386.761 599.999,386.761C629.39,386.761 653.308,410.679 653.308,440.07C653.308,469.461 629.39,493.379 599.999,493.379C570.608,493.379 546.69,469.461 546.69,440.07ZM599.999,884.31C570.608,884.31 546.69,860.392 546.69,831.001C546.69,801.606 570.608,777.692 599.999,777.692C629.39,777.692 653.308,801.61 653.308,831.001C653.308,860.392 629.39,884.31 599.999,884.31ZM937.619,724.38C908.228,724.38 884.31,700.462 884.31,671.071C884.31,641.68 908.228,617.762 937.619,617.762C967.01,617.762 990.928,641.68 990.928,671.071C990.928,700.462 967.01,724.38 937.619,724.38Z" style="fill-rule:nonzero;"/>
    </g>
</svg>
